<?xml version="1.0" standalone="no"?>
<!DOCTYPE svg PUBLIC "-//W3C//DTD SVG 20010904//EN"
 "http://www.w3.org/TR/2001/REC-SVG-20010904/DTD/svg10.dtd">
<svg version="1.0" xmlns="http://www.w3.org/2000/svg"
 width="260.000000pt" height="260.000000pt" viewBox="0 0 260.000000 260.000000"
 preserveAspectRatio="xMidYMid meet">
<metadata>
Created by potrace 1.11, written by Peter Selinger 2001-2013
</metadata>
<g transform="translate(0.000000,260.000000) scale(0.100000,-0.100000)"
fill="#000000" stroke="none">
<path d="M1114 2437 c1 -16 -5 -22 -19 -22 -11 -1 -23 4 -27 10 -5 6 -8 6 -8
-2 0 -7 -5 -13 -11 -13 -5 0 -7 5 -4 10 3 6 1 10 -4 10 -6 0 -11 -6 -11 -14 0
-13 -34 -30 -54 -27 -4 1 -18 -5 -31 -13 -12 -8 -32 -12 -44 -9 -13 3 -21 1
-21 -7 0 -7 -9 -9 -22 -6 -13 3 -17 3 -10 0 21 -10 13 -26 -10 -19 -15 4 -19
3 -10 -3 10 -7 10 -11 -3 -22 -11 -9 -12 -16 -5 -25 13 -15 -11 -27 -37 -19
-10 3 -7 -1 6 -9 13 -8 20 -16 15 -18 -6 -2 -20 -18 -32 -35 -18 -26 -19 -33
-8 -37 8 -3 20 -16 26 -28 8 -15 9 -19 1 -15 -18 12 -12 -10 7 -27 21 -19 22
-51 4 -69 -7 -7 -12 -16 -12 -22 0 -5 6 -1 14 10 14 18 15 18 13 -3 -1 -13 -8
-23 -17 -23 -13 0 -13 -1 0 -10 17 -11 41 24 33 49 -4 14 -3 14 5 1 6 -8 9
-17 6 -21 -2 -4 2 -10 8 -12 8 -3 6 -6 -4 -6 -11 -1 -18 -9 -18 -22 0 -11 5
-17 10 -14 6 4 7 11 4 17 -4 7 -2 8 5 4 6 -4 9 -12 6 -17 -4 -5 -1 -9 4 -9 6
0 11 -5 11 -11 0 -8 -5 -8 -15 1 -8 7 -15 10 -15 6 0 -4 -12 1 -27 10 -21 12
-24 12 -10 1 10 -8 17 -17 15 -20 -2 -3 1 -9 6 -14 5 -5 6 -2 1 5 -6 11 -3 12
14 3 25 -14 28 -23 4 -14 -12 5 -14 3 -8 -8 6 -9 -1 -7 -20 5 -30 19 -30 19
-12 -1 14 -17 15 -22 4 -31 -10 -9 -17 -8 -27 1 -10 9 -11 9 -6 -1 4 -7 3 -18
-2 -25 -5 -7 -15 -29 -22 -50 -7 -24 -16 -35 -23 -30 -7 4 -5 -2 3 -12 14 -17
13 -18 -7 -13 -13 4 -26 1 -30 -4 -3 -7 -1 -8 5 -4 7 4 12 2 12 -4 0 -6 5 -8
11 -4 7 4 6 -3 -2 -17 -7 -13 -13 -27 -12 -30 1 -3 -14 -5 -33 -4 -19 1 -32
-1 -28 -4 3 -3 9 -6 12 -6 4 0 13 -4 21 -9 10 -7 12 -6 6 4 -5 9 -4 11 4 6 9
-6 9 -11 0 -22 -6 -8 -8 -14 -4 -14 4 0 2 -6 -4 -13 -6 -8 -9 -17 -6 -20 3 -4
2 -5 -1 -3 -3 2 -22 -13 -42 -33 -20 -21 -45 -41 -55 -45 -10 -3 -16 -10 -13
-15 7 -11 -22 -23 -35 -16 -5 4 -6 -2 -2 -11 4 -12 3 -15 -5 -10 -7 4 -12 1
-12 -8 0 -9 -9 -16 -20 -16 -11 0 -20 -5 -20 -11 0 -7 -10 -9 -24 -7 -17 4
-23 1 -19 -8 5 -13 -25 -12 -47 1 -6 3 -10 1 -10 -5 0 -6 -5 -8 -11 -5 -14 10
-79 -4 -79 -16 0 -5 10 -13 22 -18 23 -8 23 -8 2 -15 -16 -5 -20 -13 -16 -31
4 -21 6 -22 19 -10 8 9 24 20 36 26 16 7 14 3 -7 -14 -19 -16 -24 -27 -17 -32
9 -5 9 -11 -1 -23 -7 -9 9 -1 35 17 47 32 48 32 32 7 -9 -14 -20 -24 -24 -22
-3 2 -17 -8 -31 -22 l-25 -25 25 17 c31 20 64 22 37 2 -12 -9 -14 -16 -8 -21
6 -3 11 -1 11 4 0 6 5 11 11 11 5 0 8 -4 4 -9 -3 -5 -1 -13 5 -16 8 -5 8 -11
1 -19 -8 -9 -7 -13 4 -13 7 0 14 3 13 6 -2 19 3 31 11 26 5 -3 12 -1 15 3 3 5
17 8 31 7 14 -2 25 1 25 6 0 5 -4 9 -9 9 -6 0 -9 9 -8 19 1 12 6 17 15 14 10
-4 11 -8 2 -13 -7 -5 -8 -10 -3 -13 6 -4 9 -28 7 -54 -3 -66 -3 -65 -14 -58
-5 3 -10 1 -10 -4 0 -6 5 -11 10 -11 6 0 10 -7 10 -15 0 -8 -5 -15 -12 -15 -6
0 -9 -2 -6 -5 3 -3 12 -3 21 1 13 4 14 10 7 24 -7 13 -7 21 0 25 5 3 10 -3 10
-13 0 -11 6 -25 14 -31 21 -17 8 -54 -16 -47 -24 6 -17 -3 14 -18 16 -8 22
-20 21 -36 -1 -15 0 -18 3 -8 3 10 10 18 17 18 6 0 2 7 -9 15 -17 15 -16 15
12 1 31 -15 46 -35 53 -73 1 -5 5 -2 10 6 6 9 11 10 15 2 4 -6 3 -11 -2 -11
-15 0 -20 -35 -7 -47 7 -7 15 -18 18 -25 4 -10 7 -10 18 1 12 12 12 13 0 6
-10 -6 -12 -4 -6 5 5 8 4 11 -3 6 -11 -7 -28 31 -18 41 3 4 6 -1 6 -10 0 -9 5
-17 11 -17 5 0 7 5 3 12 -4 7 -3 8 5 4 6 -4 9 -11 6 -16 -3 -5 -1 -11 5 -15 6
-4 8 -10 5 -15 -3 -4 4 -10 15 -13 21 -5 28 7 10 16 -6 3 -5 4 2 3 7 -2 12
-11 12 -20 -1 -10 13 -27 32 -39 38 -25 49 -43 32 -53 -7 -5 -8 -3 -3 5 5 9 1
9 -14 -1 -12 -7 -21 -17 -21 -22 0 -4 6 -3 13 3 10 8 20 2 43 -28 16 -22 32
-37 35 -35 3 2 12 -8 19 -21 7 -14 17 -25 22 -25 5 0 6 -5 2 -12 -4 -6 -3 -8
4 -4 6 3 13 2 17 -4 3 -5 12 -10 18 -10 8 0 8 3 -1 9 -11 7 -11 9 1 14 11 4
15 1 12 -12 -5 -25 10 -45 29 -38 9 4 20 -1 25 -11 6 -9 11 -13 11 -8 0 5 8 2
17 -5 15 -12 16 -12 9 5 -6 19 -6 19 12 3 10 -9 22 -14 27 -10 4 5 5 2 1 -4
-4 -8 -2 -13 5 -13 7 0 9 -3 6 -6 -4 -4 -13 -1 -22 6 -9 7 -18 10 -21 7 -3 -3
3 -12 15 -19 22 -14 28 -30 10 -26 -6 2 -14 -4 -16 -12 -4 -13 -3 -13 6 0 10
13 11 13 12 0 1 -8 1 -19 0 -23 -1 -5 3 -6 8 -2 6 3 8 12 5 20 -4 10 2 13 26
10 25 -3 30 -2 21 9 -8 9 -7 13 3 13 9 0 13 -8 11 -20 -3 -13 0 -17 11 -13 8
3 13 2 9 -3 -10 -17 20 -19 40 -2 12 9 15 10 8 1 -15 -17 -17 -34 -3 -25 6 3
10 1 10 -5 0 -6 4 -9 8 -6 11 6 9 -34 -1 -51 -4 -6 -2 -15 4 -19 7 -4 9 -3 5
4 -3 6 -2 13 3 16 5 3 11 -1 15 -9 3 -8 1 -17 -4 -20 -6 -4 -10 -11 -10 -16 0
-6 7 -3 16 6 15 14 15 18 0 40 -9 14 -12 25 -6 25 5 0 10 -5 10 -11 0 -5 4 -8
9 -4 5 3 12 1 16 -5 4 -6 11 -8 16 -4 5 3 9 2 8 -3 -1 -4 -1 -15 0 -23 1 -13
2 -13 11 0 7 10 10 11 11 3 1 -7 3 -17 4 -23 1 -5 3 -14 4 -19 0 -6 10 -8 21
-6 12 2 18 0 15 -6 -4 -5 -10 -7 -15 -4 -4 3 -11 -3 -14 -12 -4 -10 -1 -20 8
-25 8 -5 13 -15 10 -22 -3 -8 -1 -17 5 -21 7 -3 8 0 5 9 -4 9 -1 16 6 16 6 0
10 6 8 13 -3 6 -10 12 -15 12 -6 0 -15 3 -19 8 -4 4 0 7 9 7 9 0 18 -4 21 -9
7 -10 25 -9 44 2 7 5 12 4 12 -2 0 -6 -5 -11 -11 -11 -5 0 -7 -5 -4 -10 5 -8
12 -7 23 2 13 11 14 11 7 -1 -6 -11 -4 -13 8 -8 11 4 14 2 10 -9 -4 -11 -9
-12 -19 -3 -23 19 -16 2 10 -24 21 -22 26 -23 31 -8 6 15 7 15 19 -1 9 -13 16
-14 24 -6 9 9 14 5 21 -13 7 -18 10 -20 10 -6 1 10 5 16 10 12 5 -3 12 -1 16
5 7 12 25 4 25 -11 0 -6 -5 -7 -12 -3 -7 4 -8 3 -4 -5 9 -15 29 -3 22 14 -7
18 32 77 46 69 8 -5 9 -2 4 11 -5 15 -4 16 9 5 12 -10 13 -15 4 -20 -8 -6 -8
-9 2 -12 9 -3 8 -6 -5 -11 -9 -4 -15 -3 -11 2 3 5 1 12 -4 15 -9 6 -22 -16
-28 -49 -2 -15 -1 -16 6 -6 7 11 10 9 16 -8 4 -13 9 -20 12 -17 3 3 -2 17 -11
31 -15 23 -10 35 8 18 4 -5 13 -8 19 -8 7 -1 11 -7 9 -14 -1 -7 2 -9 9 -6 8 5
8 10 0 18 -18 18 -12 31 7 16 16 -13 16 -13 -1 7 -9 11 -14 24 -10 27 10 11
23 8 21 -4 -2 -6 3 -13 10 -14 7 -2 8 -1 3 1 -7 4 -4 15 5 30 9 13 20 21 25
18 5 -3 9 -1 9 5 0 5 -6 11 -12 14 -10 3 -10 7 0 20 14 16 47 12 36 -4 -3 -5
-11 -6 -17 -3 -7 4 -8 3 -4 -1 14 -16 35 -13 32 4 -1 9 1 21 6 27 5 7 3 11 -6
11 -8 0 -12 -4 -9 -9 3 -4 1 -8 -5 -8 -19 0 -21 19 -4 30 16 10 16 11 1 6 -9
-3 -19 0 -21 7 -5 17 4 47 15 47 5 0 5 8 -1 18 -7 13 -7 22 0 29 8 8 7 13 0
17 -6 4 -11 13 -11 19 0 7 5 4 11 -5 5 -10 16 -15 24 -12 8 4 15 1 15 -6 0 -6
-4 -9 -9 -5 -5 3 -13 0 -17 -6 -5 -8 -3 -9 6 -4 9 6 11 4 5 -5 -6 -9 -4 -11 5
-5 9 5 11 4 6 -4 -4 -6 -12 -9 -17 -6 -5 4 -9 1 -9 -5 0 -7 7 -10 14 -7 10 4
13 1 9 -8 -3 -8 -9 -13 -14 -10 -4 3 -13 -5 -20 -17 -6 -13 -8 -20 -4 -16 4 4
16 3 25 -2 15 -8 17 -6 13 10 -3 11 -1 20 5 20 6 0 9 9 7 21 -3 14 0 19 9 16
7 -3 13 1 13 8 0 7 -6 11 -14 8 -9 -4 -11 0 -7 13 12 33 15 35 32 22 15 -12
16 -11 3 5 -12 15 -12 20 -2 26 10 6 9 10 -4 15 -24 9 -32 7 -15 -4 10 -6 11
-10 2 -10 -6 0 -11 -5 -10 -11 2 -6 -8 -13 -21 -15 l-24 -4 24 19 c22 18 22
20 7 26 -10 4 -18 12 -18 17 0 6 7 5 15 -2 14 -12 15 -10 11 11 -2 13 -7 33
-11 44 -5 16 -4 15 7 -3 8 -12 17 -20 21 -16 4 4 1 14 -6 22 -9 11 -5 11 15
-2 28 -18 29 -42 1 -32 -9 4 -11 2 -7 -6 5 -7 3 -8 -6 -3 -9 5 -11 4 -6 -4 4
-6 12 -9 17 -6 5 4 9 1 9 -4 0 -6 4 -11 10 -11 5 0 6 7 3 17 -4 9 -2 14 3 11
5 -4 10 11 10 33 1 21 -3 39 -7 39 -5 0 -8 -3 -7 -7 2 -5 0 -9 -4 -10 -5 -2
-8 0 -7 3 0 4 -5 11 -13 15 -11 7 -10 9 1 9 10 0 8 7 -7 23 -17 18 -19 24 -8
24 8 0 13 -4 10 -8 -2 -4 0 -10 5 -13 16 -11 23 14 9 32 -12 15 -11 16 5 3 9
-8 21 -11 24 -7 4 4 1 12 -7 17 -12 9 -11 10 4 5 14 -5 17 -2 12 10 -4 9 -1
24 6 32 11 14 10 15 -7 8 -19 -7 -19 -6 -3 11 15 14 20 15 30 4 8 -9 9 -12 1
-7 -7 4 -10 0 -8 -11 2 -10 4 -20 4 -22 1 -3 6 0 13 7 14 14 20 45 7 36 -5 -3
-9 -1 -9 4 0 17 13 22 29 9 12 -9 11 -7 -2 13 -22 31 -22 41 1 34 14 -5 14 -4
2 5 -8 5 -11 13 -7 17 3 4 13 1 21 -5 11 -9 16 -9 22 0 4 7 3 9 -4 5 -17 -10
-25 13 -10 31 9 12 9 15 1 9 -8 -4 -13 -2 -13 6 0 10 -3 9 -9 -2 -6 -8 -7 -18
-4 -24 3 -5 1 -6 -6 -2 -6 4 -11 4 -10 -1 5 -29 -17 -40 -38 -19 -4 4 -3 7 2
6 18 -4 35 0 33 8 -1 4 4 18 12 32 16 29 16 30 -2 42 -10 8 -9 9 4 4 14 -4 17
0 14 24 -2 22 0 27 12 22 11 -4 13 -2 6 9 -19 31 -11 38 19 17 22 -15 28 -17
18 -5 -12 15 -10 18 10 26 13 5 28 6 33 3 5 -3 6 0 3 6 -4 5 -16 8 -27 5 -15
-4 -19 -1 -15 9 4 9 0 15 -10 15 -18 0 -19 -9 -2 -26 10 -11 9 -12 -2 -6 -10
6 -12 4 -6 -6 8 -12 6 -12 -8 0 -15 12 -15 16 -2 40 23 42 44 65 52 57 4 -4 3
-10 -3 -14 -12 -7 -11 -39 1 -50 4 -4 6 0 5 8 -4 28 0 41 11 34 8 -4 8 0 0 15
-7 12 -9 25 -6 30 10 16 -6 40 -23 34 -15 -4 -15 -3 -2 6 8 6 11 11 6 11 -5 0
-3 6 3 13 6 8 7 18 3 22 -4 5 -2 5 4 2 14 -8 27 20 14 28 -6 4 -10 0 -10 -7 0
-8 -5 -6 -11 5 -8 14 -7 23 5 36 9 10 14 21 11 24 -3 4 -2 5 1 2 4 -2 16 0 27
6 13 8 17 8 13 0 -4 -5 2 -14 12 -20 14 -7 19 -6 19 4 0 7 -6 11 -14 8 -18 -7
-16 2 5 23 16 17 16 18 -3 10 -23 -9 -77 -18 -57 -10 6 3 9 11 6 16 -4 6 1 17
11 24 10 8 16 17 12 20 -4 4 -13 1 -22 -6 -9 -7 -18 -10 -22 -6 -3 3 -1 6 6 6
7 0 9 5 6 10 -4 6 -3 10 2 9 22 -4 32 2 27 16 -4 8 -10 15 -16 15 -5 0 -6 -4
-3 -10 3 -5 2 -10 -4 -10 -5 0 -9 9 -8 19 1 14 8 19 27 17 14 -1 32 -6 40 -11
13 -8 13 -7 0 10 -14 17 -13 18 5 11 11 -4 16 -3 11 1 -4 4 -22 8 -38 8 -25 0
-35 7 -51 35 -10 19 -13 29 -6 23 18 -17 34 -16 20 1 -6 7 -8 22 -5 32 6 16 5
17 -7 7 -7 -7 -17 -13 -22 -13 -6 0 2 11 17 25 26 24 37 47 13 26 -14 -11 -27
-5 -27 11 0 5 5 6 10 3 6 -4 9 -1 8 7 -2 7 3 12 10 10 8 -1 11 2 7 9 -5 8 -10
8 -18 0 -14 -14 -30 -14 -22 0 4 6 -2 5 -13 -2 -12 -7 -18 -17 -15 -22 3 -5
10 -3 15 4 8 11 9 10 4 -3 -3 -10 0 -18 6 -18 6 0 8 -3 5 -7 -4 -3 -16 2 -27
12 -19 17 -19 19 -3 38 10 11 13 17 6 14 -6 -4 -13 -2 -16 5 -2 7 -3 5 -2 -4
2 -9 -4 -19 -12 -22 -8 -3 -12 -2 -10 2 7 10 -19 32 -29 24 -4 -4 -4 -1 0 5
12 22 16 54 5 47 -5 -3 -17 0 -25 7 -12 10 -13 9 -9 -3 3 -8 -2 -21 -12 -29
-16 -13 -17 -12 -4 4 15 19 2 24 -17 5 -9 -9 -12 -9 -12 -1 0 7 -9 10 -20 8
-11 -2 -22 0 -25 5 -3 5 -12 7 -20 3 -8 -3 -15 0 -15 6 0 6 -8 11 -17 11 -15
0 -16 -2 -3 -10 11 -7 6 -10 -21 -10 -20 0 -42 -7 -49 -15 -11 -13 -16 -13
-41 1 -17 8 -27 20 -23 26 4 7 3 8 -5 4 -8 -6 -9 -12 -2 -20 14 -16 4 -26 -17
-19 -14 4 -15 3 -2 -5 10 -8 18 -8 27 -1 7 6 17 8 23 4 8 -5 4 -11 -11 -19
-13 -6 -33 -26 -45 -43 -16 -25 -24 -29 -33 -20 -9 9 -11 8 -5 -7 6 -15 4 -17
-7 -11 -11 6 -11 5 -2 -5 13 -14 6 -43 -8 -34 -12 7 -39 -14 -39 -30 0 -6 5
-3 11 7 6 9 14 15 20 12 5 -4 3 -13 -6 -21 -8 -9 -12 -20 -9 -26 4 -6 1 -13
-5 -17 -6 -4 -13 -21 -15 -38 -5 -39 -28 -75 -43 -68 -7 2 -13 0 -13 -6 0 -6
-7 -17 -15 -25 -8 -9 -15 -24 -15 -35 0 -10 -6 -19 -12 -19 -10 0 -10 -2 0 -9
7 -4 14 -19 15 -32 1 -13 11 -32 22 -42 16 -14 17 -16 3 -11 -10 3 -18 1 -18
-5 0 -6 4 -11 8 -11 5 0 9 -6 9 -14 0 -8 -5 -14 -11 -13 -6 1 -12 -8 -14 -21
-3 -23 -4 -23 -23 -6 -10 9 -19 14 -19 9 0 -17 35 -34 47 -23 9 7 13 7 13 0 0
-13 -29 -24 -42 -15 -6 3 -8 1 -4 -5 3 -5 1 -12 -6 -14 -7 -3 -5 -7 6 -11 10
-4 15 -3 11 3 -3 6 -1 10 4 10 6 0 10 -9 8 -20 -4 -28 -15 -36 -23 -16 -8 22
-40 20 -57 -4 -8 -11 -17 -17 -20 -13 -4 3 1 15 10 25 13 15 14 21 4 31 -10 9
-15 8 -25 -5 -14 -18 -32 -26 -21 -9 3 5 1 12 -4 15 -5 4 -8 -2 -6 -11 2 -10
4 -22 4 -27 1 -5 8 -3 16 4 10 8 15 9 15 2 0 -6 -10 -16 -21 -23 -13 -6 -17
-14 -11 -18 6 -4 5 -11 -4 -19 -12 -11 -14 -10 -11 5 1 10 6 23 10 30 4 6 3
14 -3 18 -11 7 -8 40 4 52 4 4 -3 15 -16 25 -14 11 -16 16 -6 12 13 -4 16 -1
12 18 -4 21 -3 21 5 3 4 -11 6 -24 3 -29 -3 -5 0 -6 7 -2 6 4 9 11 6 16 -3 4
2 10 10 14 20 7 19 -8 -1 -28 -12 -12 -12 -16 -2 -16 10 0 9 -3 -2 -11 -12 -9
-11 -9 5 -3 11 4 31 7 44 7 18 -1 20 1 10 8 -8 5 -23 6 -34 2 -17 -5 -18 -4
-6 10 7 9 10 24 7 33 -4 12 -2 15 9 10 8 -3 15 -1 15 4 0 6 -7 10 -15 10 -8 0
-15 5 -15 10 0 6 7 10 15 10 8 0 15 4 15 10 0 5 -6 7 -13 4 -8 -3 -13 3 -13
16 0 13 5 19 13 16 7 -3 13 -1 13 4 0 6 -6 10 -14 10 -14 0 -16 23 -3 36 3 4
1 16 -5 28 -7 11 -11 24 -10 28 1 4 -5 5 -14 1 -11 -4 -12 -8 -4 -13 7 -4 8
-10 4 -12 -5 -3 -4 -3 3 -2 6 2 14 -4 17 -12 5 -12 1 -14 -17 -10 -12 3 -16 3
-9 0 6 -3 10 -10 6 -15 -3 -5 1 -9 8 -9 8 -1 6 -6 -6 -15 -18 -13 -14 -41 5
-30 5 4 9 2 9 -4 0 -18 -20 -23 -26 -7 -3 9 -11 13 -18 9 -6 -3 -8 -3 -4 2 4
4 3 14 -4 22 -8 10 -8 12 4 8 21 -8 19 64 -2 85 -9 8 -11 12 -6 8 19 -15 29
-8 14 10 -8 9 -18 24 -22 32 -4 8 -1 7 7 -3 9 -11 18 -14 21 -8 4 5 2 12 -4
16 -5 3 -10 11 -10 17 0 6 3 8 7 5 3 -4 13 -1 21 6 13 10 14 9 7 -2 -5 -10 -4
-12 4 -7 6 4 8 12 5 18 -4 6 6 22 22 36 23 19 24 21 6 12 -22 -11 -23 -10 -17
12 5 18 4 20 -5 8 -9 -12 -10 -10 -5 9 6 18 4 22 -6 16 -8 -5 -6 1 4 12 15 18
17 25 7 45 -11 22 -11 22 9 -2 11 -13 17 -27 13 -30 -13 -9 -11 -27 3 -27 7 0
11 6 8 14 -3 7 -1 13 5 13 6 0 12 -5 14 -12 3 -7 7 -5 11 6 4 11 3 15 -4 10
-7 -4 -10 -1 -7 7 3 8 14 13 24 11 17 -2 17 -1 2 8 -10 6 -14 18 -10 32 3 14
2 19 -7 14 -6 -4 -9 -11 -6 -16 3 -5 1 -11 -5 -15 -6 -4 -8 -10 -5 -15 3 -5 2
-11 -3 -13 -4 -3 -13 6 -19 20 -10 20 -10 23 2 13 9 -7 15 -8 20 0 3 5 1 10
-6 10 -7 0 -4 6 7 14 13 10 23 11 31 4 9 -7 11 -4 10 11 -1 15 -6 20 -17 16
-11 -5 -12 -3 -3 5 8 9 16 9 30 1 11 -7 13 -10 4 -11 -10 0 -11 -3 -2 -13 6
-8 8 -16 5 -19 -2 -3 2 -8 11 -12 12 -4 13 -2 6 12 -5 9 -7 30 -6 45 2 20 0
27 -10 24 -9 -4 -11 1 -7 15 4 15 7 17 13 6 8 -12 13 -4 10 14 0 4 10 2 24 -4
13 -6 21 -16 18 -21 -5 -8 -8 -7 -11 1 -2 7 -9 12 -15 12 -5 0 -7 -3 -4 -7 4
-3 2 -12 -4 -19 -6 -8 -7 -14 0 -18 6 -4 7 -14 4 -24 -3 -9 -3 -14 1 -10 4 3
9 13 10 22 1 9 17 30 34 46 18 16 32 35 32 42 0 9 3 9 11 -2 8 -11 9 -9 3 10
-6 22 -5 23 9 12 10 -9 17 -10 22 -2 4 6 1 9 -5 8 -7 -2 -14 6 -16 18 -3 21 0
22 50 26 15 1 23 8 21 18 -3 17 13 40 27 40 6 0 4 -8 -3 -17 -11 -15 -11 -16
0 -6 7 6 21 9 30 6 15 -4 15 -4 0 6 -10 7 -15 19 -12 35 3 13 0 27 -6 30 -6 4
-11 11 -11 17 0 5 8 1 18 -8 11 -10 17 -28 15 -40 -2 -16 2 -21 16 -20 11 0
18 4 15 8 -2 4 3 10 12 13 8 3 12 10 9 16 -3 5 -1 10 4 10 6 0 11 -8 11 -17 1
-17 1 -17 11 0 6 10 8 21 5 25 -11 10 -45 9 -39 -1 4 -6 1 -7 -7 -2 -8 5 -11
4 -7 -2 4 -6 1 -18 -7 -28 -11 -15 -13 -16 -13 -1 0 9 5 16 11 16 6 0 0 10
-14 21 -18 15 -19 18 -5 11 14 -7 26 -6 39 4 14 10 24 10 38 3 11 -6 22 -8 25
-5 4 3 12 1 20 -6 11 -8 17 -8 26 2 10 10 9 12 -4 7 -9 -3 -22 0 -28 6 -6 6
-11 8 -11 4 0 -4 -9 -3 -20 3 -21 11 -27 30 -9 30 5 0 7 -4 4 -10 -10 -16 4
-12 35 12 16 11 27 25 24 29 -2 4 0 10 5 13 5 4 8 -2 6 -11 -2 -10 -4 -21 -4
-25 -1 -5 -7 -8 -14 -8 -8 0 -14 -7 -14 -15 0 -8 7 -15 14 -15 8 0 11 5 8 10
-3 6 -2 10 4 10 5 0 14 -8 20 -17 5 -10 13 -15 17 -11 10 11 14 59 3 52 -12
-7 -23 22 -14 36 5 8 11 8 21 -1 17 -14 19 2 2 20 -8 9 -8 11 -2 8 7 -4 15 0
18 9 4 9 9 14 12 11 3 -3 17 -2 30 4 19 7 26 5 30 -6 4 -8 10 -12 16 -9 5 3 4
11 -3 20 -7 9 -8 14 -1 14 6 0 12 -6 15 -12 3 -10 8 -10 21 1 15 13 19 13 27
0 4 -8 6 -22 3 -32 -4 -14 -1 -17 13 -15 10 2 17 -2 16 -8 -1 -7 8 -20 20 -30
l22 -19 -20 24 -20 24 20 -6 c18 -7 19 -6 3 6 -10 8 -15 17 -11 20 3 4 12 2
20 -4 10 -9 18 -8 32 5 18 17 19 17 24 -1 4 -16 5 -16 6 0 1 18 20 24 22 7 1
-5 2 -14 3 -19 0 -5 4 -13 8 -17 4 -3 5 4 3 17 -3 13 -12 29 -20 35 -22 16
-19 27 4 14 31 -16 35 -12 10 11 -22 18 -22 19 -3 10 12 -6 24 -7 28 -4 3 3 6
-1 6 -10 0 -9 4 -17 10 -17 5 0 6 8 3 18 -6 15 -5 16 12 2 10 -8 16 -10 12 -3
-4 6 -1 14 5 17 7 3 4 4 -6 3 -10 -1 -21 4 -24 12 -3 9 0 11 8 6 9 -5 11 -4 6
3 -7 11 6 17 28 13 5 -1 2 8 -6 21 -9 13 -18 22 -22 21 -9 -4 -5 -18 5 -16 5
2 9 -2 9 -8 0 -6 -7 -8 -16 -5 -8 3 -13 2 -10 -2 2 -4 -4 -18 -13 -31 -14 -18
-20 -21 -26 -11 -5 8 -4 11 2 7 6 -4 13 0 17 8 6 17 -10 30 -17 15 -3 -6 -4
-5 -3 2 2 7 9 13 17 13 17 0 19 24 5 45 -9 13 -8 13 5 3 13 -10 20 -9 37 8 12
11 22 25 22 32 0 6 -7 1 -16 -11 -19 -27 -34 -29 -27 -2 3 11 9 18 12 15 4 -2
8 2 8 9 0 7 -6 13 -13 13 -7 0 -11 -4 -8 -9 3 -4 0 -8 -5 -8 -6 0 -11 6 -11
13 0 7 -9 18 -20 25 -11 7 -20 8 -20 3 0 -12 -29 -23 -41 -15 -6 3 -5 12 3 22
8 10 9 13 1 9 -7 -4 -14 0 -16 10 -3 10 -4 2 -3 -17 3 -32 0 -36 -23 -37 -14
0 -18 1 -8 4 11 3 17 14 17 33 0 24 -3 28 -22 25 -12 -3 -25 -10 -29 -16 -4
-6 -12 -8 -19 -4 -9 5 -11 4 -6 -3 4 -7 1 -12 -9 -12 -9 0 -32 -11 -52 -25
-20 -13 -41 -21 -46 -18 -6 3 -7 1 -3 -6 4 -6 13 -8 19 -5 7 4 1 -5 -13 -18
-14 -14 -29 -23 -33 -21 -5 3 -1 10 7 16 12 9 13 16 5 27 -9 12 -10 12 -5 -4
5 -13 2 -17 -8 -13 -10 4 -14 0 -11 -13 2 -12 -5 -26 -17 -34 -19 -14 -23 -13
-33 1 -10 13 -14 13 -20 3 -5 -9 -4 -11 3 -6 7 4 12 1 12 -8 0 -9 -3 -15 -7
-14 -5 1 -21 -4 -38 -12 -38 -19 -67 -19 -91 0 -18 14 -18 14 -5 -2 15 -21 2
-24 -19 -5 -12 10 -12 9 0 -6 7 -10 19 -16 27 -13 7 3 13 2 13 -3 0 -8 -56
-25 -72 -22 -5 0 -14 2 -20 4 -7 1 -12 -6 -12 -15 1 -10 -2 -16 -6 -13 -4 3
-13 -2 -20 -10 -13 -16 -43 -9 -33 9 4 6 -1 5 -10 -3 -18 -15 -23 -26 -7 -16
6 3 10 2 10 -4 0 -5 -14 -12 -30 -16 -18 -4 -27 -11 -24 -17 4 -6 2 -8 -3 -5
-6 4 -21 -1 -34 -11 -26 -20 -37 -21 -58 -8 -10 7 -12 3 -6 -15 7 -22 7 -22
-9 -6 -10 9 -23 14 -29 10 -6 -4 -8 0 -4 10 3 9 2 19 -3 22 -6 4 -10 -1 -10
-9 0 -8 -5 -18 -11 -21 -9 -6 15 62 26 73 7 8 25 -9 20 -19 -4 -5 -4 -9 -2 -9
3 0 15 17 26 38 19 32 19 34 2 15 -19 -23 -38 -32 -26 -14 3 5 0 13 -6 17 -8
5 -9 3 -4 -7 5 -8 5 -11 0 -7 -4 4 -17 3 -29 -3 -20 -9 -20 -9 -3 4 19 16 7
34 -14 21 -8 -5 -8 -1 0 13 7 14 7 24 -2 33 -7 7 -7 10 -2 7 6 -3 15 6 22 19
6 13 8 24 3 24 -4 0 -10 -7 -14 -15 -3 -8 -10 -15 -16 -15 -6 0 -9 4 -6 9 3 4
-6 13 -20 20 -14 6 -22 16 -19 21 3 6 1 10 -4 10 -6 0 -11 7 -11 16 0 9 5 12
13 8 6 -4 9 -4 5 1 -4 4 -2 15 5 23 11 13 9 14 -10 1 -13 -8 -23 -17 -23 -21
0 -5 -5 -8 -11 -8 -5 0 -8 4 -4 10 3 5 -9 8 -29 6 -29 -2 -33 0 -24 11 8 9 14
10 23 3 10 -8 15 -8 21 1 4 7 3 9 -4 5 -6 -3 -13 -2 -17 3 -3 6 -13 7 -22 4
-11 -4 -14 -3 -9 5 4 7 2 12 -4 12 -7 0 -10 -7 -7 -15 4 -8 2 -17 -4 -20 -13
-8 -23 21 -13 37 12 18 14 37 4 43 -4 2 -7 -5 -6 -18z m1056 -187 c0 -5 -5
-10 -11 -10 -5 0 -7 5 -4 10 3 6 8 10 11 10 2 0 4 -4 4 -10z m-45 -10 c3 -5 1
-10 -4 -10 -6 0 -11 5 -11 10 0 6 2 10 4 10 3 0 8 -4 11 -10z m-35 -21 c0 -5
-4 -9 -8 -9 -5 0 -9 7 -9 15 0 8 4 12 9 9 4 -3 8 -9 8 -15z m56 -13 c0 -13 -3
-22 -5 -20 -2 2 -13 -3 -23 -12 -13 -13 -21 -14 -31 -5 -8 6 -17 8 -21 4 -12
-12 -37 -12 -29 0 8 12 9 18 12 40 1 9 4 8 10 -2 5 -8 19 -16 30 -18 15 -2 19
1 14 15 -5 14 -3 14 9 -2 15 -18 15 -18 21 3 7 28 15 27 13 -3z m-219 8 c-3
-3 -12 -4 -19 -1 -8 3 -5 6 6 6 11 1 17 -2 13 -5z m-92 -54 c-3 -5 -12 -10
-18 -10 -7 0 -6 4 3 10 19 12 23 12 15 0z m-47 -45 c-3 -3 -9 2 -12 12 -6 14
-5 15 5 6 7 -7 10 -15 7 -18z m-18 -5 c0 -5 -5 -10 -11 -10 -5 0 -7 5 -4 10 3
6 8 10 11 10 2 0 4 -4 4 -10z m80 -32 c0 -13 -23 -5 -28 10 -2 7 2 10 12 6 9
-3 16 -11 16 -16z m-510 -2 c0 -2 -7 -7 -16 -10 -8 -3 -12 -2 -9 4 6 10 25 14
25 6z m350 -16 c0 -5 -4 -10 -10 -10 -5 0 -10 5 -10 10 0 6 5 10 10 10 6 0 10
-4 10 -10z m-50 -74 c-1 -6 -7 0 -14 13 -7 13 -16 20 -19 14 -3 -5 -2 -15 3
-23 6 -9 4 -20 -5 -30 -7 -8 -15 -19 -17 -25 -2 -5 -11 -9 -20 -9 -10 1 -18
-3 -18 -7 0 -5 -6 -8 -12 -6 -7 1 -13 -5 -13 -13 0 -25 -44 -92 -55 -85 -6 4
-7 11 -4 17 5 8 1 9 -12 4 -10 -4 -2 7 19 24 36 31 55 66 20 39 -16 -12 -17
-12 -5 2 7 9 10 25 6 35 -4 15 -2 14 8 -3 12 -19 15 -20 33 -7 11 8 20 22 20
32 0 9 6 16 13 14 10 -2 12 4 7 20 -7 23 -7 23 10 3 12 -15 15 -16 12 -4 -8
26 15 43 30 22 7 -9 13 -22 13 -27z m-103 -42 c-3 -3 -12 -4 -19 -1 -8 3 -5 6
6 6 11 1 17 -2 13 -5z m-70 -66 c-3 -8 -6 -5 -6 6 -1 11 2 17 5 13 3 -3 4 -12
1 -19z m-102 -87 c3 -5 2 -12 -3 -15 -5 -3 -9 1 -9 9 0 17 3 19 12 6z m570 -1
c-3 -5 -10 -10 -16 -10 -5 0 -9 5 -9 10 0 6 7 10 16 10 8 0 12 -4 9 -10z
m-585 -45 c0 -2 -10 -9 -22 -15 -22 -11 -22 -10 -4 4 21 17 26 19 26 11z m685
-65 c-3 -5 -12 -10 -18 -10 -7 0 -6 4 3 10 19 12 23 12 15 0z m-745 -19 c0 -6
-4 -12 -8 -15 -5 -3 -9 1 -9 9 0 8 4 15 9 15 4 0 8 -4 8 -9z m-10 -88 c0 5 5
5 11 2 12 -8 -17 -45 -35 -45 -6 0 -4 6 5 13 15 11 15 15 3 32 -8 10 -14 24
-14 29 1 6 7 0 15 -14 8 -14 14 -21 15 -17z m-32 -168 c-3 -3 -9 2 -12 12 -6
14 -5 15 5 6 7 -7 10 -15 7 -18z m-603 -25 c3 -5 1 -10 -4 -10 -6 0 -11 5 -11
10 0 6 2 10 4 10 3 0 8 -4 11 -10z m70 0 c-3 -5 -12 -10 -18 -10 -7 0 -6 4 3
10 19 12 23 12 15 0z m535 0 c0 -5 -2 -10 -4 -10 -3 0 -8 5 -11 10 -3 6 -1 10
4 10 6 0 11 -4 11 -10z m-719 -23 c-6 -8 -9 -16 -6 -19 3 -2 -2 -5 -10 -5 -13
0 -13 3 2 19 19 21 31 25 14 5z m43 -15 c2 -4 -4 -8 -14 -8 -10 0 -16 4 -14 8
3 4 9 8 14 8 5 0 11 -4 14 -8z m-104 -42 c-8 -5 -17 -7 -21 -4 -4 2 -9 -5 -12
-16 -6 -22 8 -28 16 -7 3 6 4 2 4 -9 -1 -14 -6 -20 -14 -17 -7 3 -13 -1 -13
-8 0 -8 -6 -5 -15 7 -13 16 -14 16 -9 2 3 -10 2 -18 -3 -18 -14 0 -12 33 4 48
11 11 13 11 14 0 0 -7 4 -4 8 7 5 12 19 21 32 22 18 2 20 0 9 -7z m790 6 c0
-2 -7 -7 -16 -10 -8 -3 -12 -2 -9 4 6 10 25 14 25 6z m770 0 c0 -3 -4 -8 -10
-11 -5 -3 -10 -1 -10 4 0 6 5 11 10 11 6 0 10 -2 10 -4z m-735 -30 c-1 -11 -8
-22 -16 -24 -11 -3 -12 -2 -1 6 11 7 9 10 -6 14 -11 3 -24 3 -29 -1 -5 -3 -1
1 8 10 24 22 46 20 44 -5z m735 -38 c0 -9 4 -8 10 2 5 8 10 10 10 4 0 -16 -10
-23 -26 -17 -16 6 -19 23 -4 23 6 0 10 -6 10 -12z m-16 -31 c-3 -8 -12 -14
-21 -14 -13 0 -13 2 3 14 10 7 19 13 21 13 1 0 0 -6 -3 -13z m-764 -12 c0 -2
-9 -3 -19 -2 -11 0 -18 5 -15 9 4 6 34 0 34 -7z m-17 -40 c-3 -9 -8 -14 -10
-11 -3 3 -2 9 2 15 9 16 15 13 8 -4z m87 5 c0 -5 -4 -10 -10 -10 -5 0 -10 5
-10 10 0 6 5 10 10 10 6 0 10 -4 10 -10z m52 -49 c-2 -19 1 -21 11 -12 10 8
14 7 14 -4 0 -8 -4 -12 -8 -9 -4 2 -10 0 -14 -6 -3 -5 0 -10 7 -10 10 0 10 -2
0 -9 -8 -4 -13 -12 -12 -17 1 -5 -3 -10 -9 -12 -6 -2 -11 2 -11 8 0 7 -6 10
-14 7 -7 -3 -23 1 -34 8 -10 8 -23 11 -27 7 -5 -4 -5 -2 -1 5 4 7 14 9 24 6
14 -5 15 -3 5 8 -19 19 -17 45 1 30 12 -10 17 -8 26 9 15 28 46 22 42 -9z
m588 -27 c0 -8 -19 -13 -24 -6 -3 5 1 9 9 9 8 0 15 -2 15 -3z m-1406 -23 c3
-5 -1 -11 -9 -14 -9 -4 -12 -1 -8 9 6 16 10 17 17 5z m1393 -23 c-3 -8 -6 -5
-6 6 -1 11 2 17 5 13 3 -3 4 -12 1 -19z m-604 -33 c-7 -21 -12 -19 -10 4 0 11
5 18 9 15 4 -3 5 -11 1 -19z m591 -30 c-4 -8 -11 -15 -16 -15 -6 0 -5 6 2 15
7 8 14 15 16 15 2 0 1 -7 -2 -15z m-29 -75 c3 -5 1 -10 -4 -10 -6 0 -11 5 -11
10 0 6 2 10 4 10 3 0 8 -4 11 -10z m32 -23 c-1 -5 -11 -11 -20 -13 -9 -1 -15
2 -11 7 3 5 10 6 16 3 8 -5 9 -1 5 10 -4 11 -3 15 4 11 5 -4 8 -12 6 -18z
m-1152 -37 c3 -5 1 -10 -4 -10 -6 0 -11 5 -11 10 0 6 2 10 4 10 3 0 8 -4 11
-10z m1089 -39 c3 -5 -1 -11 -9 -14 -9 -4 -12 -1 -8 9 6 16 10 17 17 5z
m-1052 -23 c-16 -16 -15 -31 1 -21 16 10 41 14 32 5 -4 -4 -12 -7 -17 -7 -6 0
-13 -5 -15 -12 -4 -12 14 -12 34 0 6 4 15 3 18 -3 4 -6 1 -9 -6 -8 -6 2 -14
-3 -16 -11 -4 -9 1 -11 18 -7 13 3 19 3 12 0 -8 -4 -5 -13 9 -29 12 -14 26
-21 32 -18 6 4 5 -1 -3 -10 -13 -17 -15 -16 -37 4 -13 12 -21 25 -19 30 3 4
-4 10 -15 14 -11 3 -28 18 -39 31 -16 21 -18 29 -8 39 7 8 16 14 22 15 5 0 4
-5 -3 -12z m162 -152 c-6 -15 -34 -31 -34 -19 0 5 30 32 37 33 1 0 0 -6 -3
-14z m26 -26 c0 -5 -4 -10 -10 -10 -5 0 -10 5 -10 10 0 6 5 10 10 10 6 0 10
-4 10 -10z m90 -74 c0 -3 -4 -8 -10 -11 -5 -3 -10 -1 -10 4 0 6 5 11 10 11 6
0 10 -2 10 -4z m90 -20 c0 -3 -4 -8 -10 -11 -5 -3 -10 -1 -10 4 0 6 5 11 10
11 6 0 10 -2 10 -4z m551 -88 c-10 -11 -11 -9 -5 6 6 15 4 17 -6 11 -9 -6 -11
-4 -5 4 5 9 10 10 18 2 8 -8 7 -14 -2 -23z m25 -33 c1 -8 -5 -20 -14 -27 -10
-7 -14 -9 -10 -4 4 5 -1 16 -10 25 -10 9 -13 13 -8 9 6 -5 14 -8 18 -8 4 0 7
3 7 8 -1 4 -1 11 0 16 1 13 14 -1 17 -19z m-28 -48 c7 -8 6 -18 -4 -31 -8 -12
-14 -15 -14 -7 0 10 -3 11 -14 2 -10 -9 -15 -8 -19 3 -4 9 -1 18 5 22 7 5 8 2
3 -6 -5 -8 -3 -11 6 -8 8 3 13 12 11 22 -3 19 11 21 26 3z m-328 -23 c0 -2 -7
-4 -15 -4 -8 0 -15 4 -15 10 0 5 7 7 15 4 8 -4 15 -8 15 -10z m178 -49 c-3 -3
-9 2 -12 12 -6 14 -5 15 5 6 7 -7 10 -15 7 -18z m-58 5 c0 -5 -7 -10 -16 -10
-8 0 -12 -5 -9 -10 4 -6 11 -8 16 -5 5 4 9 1 9 -4 0 -14 -17 -14 -25 -1 -5 8
-11 7 -21 -1 -8 -6 -14 -9 -14 -5 0 3 0 8 0 11 0 3 3 6 8 6 4 1 16 8 27 15 23
17 25 17 25 4z m30 -10 c1 12 3 12 11 -2 5 -10 16 -15 24 -12 8 4 15 1 15 -6
0 -6 -4 -9 -9 -5 -5 3 -12 1 -15 -4 -11 -17 -39 -4 -43 20 -2 19 -1 21 7 9 9
-13 10 -13 10 0z"/>
<path d="M2053 2185 c0 -8 4 -12 9 -9 5 3 6 10 3 15 -9 13 -12 11 -12 -6z"/>
<path d="M1587 1965 c-12 -11 -17 -12 -20 -2 -3 6 -5 3 -4 -9 1 -11 7 -21 14
-21 7 0 11 3 8 5 -3 3 2 14 12 24 19 22 11 24 -10 3z"/>
<path d="M1492 1865 c-12 -14 -18 -25 -13 -25 5 0 16 11 25 25 9 14 15 25 13
25 -2 0 -13 -11 -25 -25z"/>
<path d="M1340 1118 c0 -4 4 -8 9 -8 6 0 12 4 15 8 3 5 -1 9 -9 9 -8 0 -15 -4
-15 -9z"/>
<path d="M1308 1085 c4 -5 7 -14 7 -20 1 -5 7 -9 14 -7 7 1 19 -2 25 -7 9 -8
13 -6 13 4 0 8 -4 15 -9 15 -4 0 -8 5 -8 11 0 5 6 7 13 3 6 -4 8 -3 4 2 -12
12 -67 12 -59 -1z m23 -18 c-10 -9 -11 -8 -5 6 3 10 9 15 12 12 3 -3 0 -11 -7
-18z"/>
<path d="M885 670 c10 -11 20 -20 23 -20 3 0 -3 9 -13 20 -10 11 -20 20 -23
20 -3 0 3 -9 13 -20z"/>
<path d="M1723 325 c0 -8 4 -12 9 -9 5 3 6 10 3 15 -9 13 -12 11 -12 -6z"/>
<path d="M1556 242 c-3 -5 1 -9 9 -9 8 0 12 4 9 9 -3 4 -7 8 -9 8 -2 0 -6 -4
-9 -8z"/>
<path d="M965 2420 c-16 -7 -17 -9 -3 -9 9 -1 18 -7 21 -13 3 -7 4 -3 4 10 -1
12 -1 22 -2 21 0 0 -9 -4 -20 -9z"/>
<path d="M2146 2413 c-6 -14 -5 -15 5 -6 7 7 10 15 7 18 -3 3 -9 -2 -12 -12z"/>
<path d="M937 2399 c7 -7 15 -10 18 -7 3 3 -2 9 -12 12 -14 6 -15 5 -6 -5z"/>
<path d="M855 2380 c-3 -5 -1 -10 4 -10 6 0 11 5 11 10 0 6 -2 10 -4 10 -3 0
-8 -4 -11 -10z"/>
<path d="M910 2380 c0 -5 5 -10 10 -10 6 0 10 5 10 10 0 6 -4 10 -10 10 -5 0
-10 -4 -10 -10z"/>
<path d="M1259 2347 c0 -1 -2 -9 -4 -18 -4 -22 41 -44 48 -25 4 10 -1 12 -14
9 -10 -3 -19 -1 -19 5 0 6 8 12 18 14 14 3 13 5 -5 10 -13 3 -23 5 -24 5z"/>
<path d="M1851 2314 c0 -11 3 -14 6 -6 3 7 2 16 -1 19 -3 4 -6 -2 -5 -13z"/>
<path d="M2276 2318 c3 -5 10 -6 15 -3 13 9 11 12 -6 12 -8 0 -12 -4 -9 -9z"/>
<path d="M2261 2303 c7 -12 15 -20 18 -17 3 2 -3 12 -13 22 -17 16 -18 16 -5
-5z"/>
<path d="M1755 2281 c-3 -5 -2 -12 3 -15 5 -3 9 1 9 9 0 17 -3 19 -12 6z"/>
<path d="M765 2241 c-3 -5 -2 -12 3 -15 5 -3 9 1 9 9 0 17 -3 19 -12 6z"/>
<path d="M1314 2235 c1 -8 5 -18 9 -22 10 -9 47 -11 47 -2 0 10 -30 20 -41 14
-5 -4 -6 1 -3 9 3 9 2 16 -4 16 -6 0 -9 -7 -8 -15z"/>
<path d="M1633 2235 c0 -8 4 -15 9 -15 4 0 8 4 8 9 0 6 -4 12 -8 15 -5 3 -9
-1 -9 -9z"/>
<path d="M2270 2239 c0 -5 5 -7 10 -4 6 3 10 8 10 11 0 2 -4 4 -10 4 -5 0 -10
-5 -10 -11z"/>
<path d="M1980 2180 c-14 -11 -19 -20 -12 -20 10 0 10 -4 0 -22 -14 -26 -20
-53 -10 -43 4 4 7 10 7 13 1 4 7 18 15 32 7 14 12 27 11 30 -1 2 3 6 11 8 8 2
9 0 3 -5 -5 -4 -12 -17 -13 -28 -4 -23 0 -20 16 11 17 32 1 46 -28 24z"/>
<path d="M1477 2179 c7 -7 15 -10 18 -7 3 3 -2 9 -12 12 -14 6 -15 5 -6 -5z"/>
<path d="M1917 2179 c-9 -6 -21 -8 -26 -5 -5 3 -11 -1 -15 -9 -3 -8 0 -17 6
-21 7 -4 6 -9 -3 -15 -8 -4 -19 -3 -26 3 -10 8 -13 6 -13 -6 0 -10 4 -15 9
-11 6 3 14 -3 20 -12 10 -16 11 -16 17 6 l7 24 17 -23 c13 -17 19 -20 25 -10
6 9 4 11 -5 5 -10 -6 -12 -4 -7 9 4 10 7 20 7 22 0 3 4 3 9 -1 16 -9 20 9 8
32 -9 17 -16 19 -30 12z m26 -23 c4 -10 0 -13 -14 -11 -16 3 -19 0 -15 -12 5
-13 4 -14 -9 -3 -21 17 -19 30 5 25 11 -2 20 0 20 6 0 14 7 11 13 -5z"/>
<path d="M1415 2170 c-4 -6 -10 -8 -15 -5 -5 3 -11 -3 -15 -14 -7 -22 -42 -21
-37 0 3 11 1 11 -8 2 -10 -9 -9 -16 3 -33 10 -14 17 -18 22 -10 4 6 12 7 18 2
17 -12 31 -9 50 10 19 19 22 28 8 28 -5 0 -13 -9 -16 -20 -4 -11 -11 -18 -16
-14 -5 3 -6 10 -3 16 4 7 2 8 -4 4 -7 -4 -12 -2 -12 3 0 6 6 11 14 11 8 0 16
7 20 15 6 17 0 20 -9 5z"/>
<path d="M2196 2167 c3 -10 9 -15 12 -12 3 3 0 11 -7 18 -10 9 -11 8 -5 -6z"/>
<path d="M1460 2160 c0 -5 5 -10 11 -10 5 0 7 5 4 10 -3 6 -8 10 -11 10 -2 0
-4 -4 -4 -10z"/>
<path d="M759 2152 c9 -7 10 -11 2 -15 -7 -4 -8 -5 0 -3 15 2 13 20 -3 24 -10
3 -10 2 1 -6z"/>
<path d="M2011 2124 c0 -11 3 -14 6 -6 3 7 2 16 -1 19 -3 4 -6 -2 -5 -13z"/>
<path d="M735 2091 c-3 -5 -2 -12 3 -15 5 -3 9 1 9 9 0 17 -3 19 -12 6z"/>
<path d="M770 2086 c0 -15 24 -28 34 -19 7 7 -13 33 -25 33 -5 0 -9 -6 -9 -14z"/>
<path d="M1880 2060 c-9 -6 -10 -10 -3 -10 6 0 15 5 18 10 8 12 4 12 -15 0z"/>
<path d="M755 2051 c-4 -7 0 -8 11 -4 12 4 15 3 10 -5 -4 -7 -2 -12 4 -12 14
0 8 22 -7 27 -6 2 -14 -1 -18 -6z"/>
<path d="M1773 2023 c4 -3 -1 -12 -11 -20 -15 -13 -15 -13 6 -3 19 9 23 30 5
30 -4 0 -3 -3 0 -7z"/>
<path d="M1714 1960 c0 -13 4 -16 10 -10 7 7 7 13 0 20 -6 6 -10 3 -10 -10z"/>
<path d="M760 1966 c0 -2 8 -10 18 -17 15 -13 16 -12 3 4 -13 16 -21 21 -21
13z"/>
<path d="M787 1895 c3 -8 9 -12 14 -9 12 7 11 11 -5 17 -10 4 -13 1 -9 -8z"/>
<path d="M1700 1860 c-12 -7 -10 -9 7 -7 12 0 19 5 17 9 -6 10 -6 10 -24 -2z"/>
<path d="M735 1850 c-3 -5 -4 -14 -1 -19 3 -5 -1 -11 -9 -15 -8 -3 -15 -10
-15 -16 0 -19 34 21 35 41 2 21 -1 24 -10 9z"/>
<path d="M1807 1846 c-17 -13 -17 -14 0 -21 29 -13 43 -14 43 -3 0 6 -6 8 -14
5 -20 -8 -28 4 -15 20 14 17 9 16 -14 -1z"/>
<path d="M1645 1820 c-3 -6 1 -7 9 -4 18 7 21 14 7 14 -6 0 -13 -4 -16 -10z"/>
<path d="M1718 1823 c7 -3 16 -2 19 1 4 3 -2 6 -13 5 -11 0 -14 -3 -6 -6z"/>
<path d="M1675 1809 c-4 -6 -5 -12 -2 -15 2 -3 7 2 10 11 7 17 1 20 -8 4z"/>
<path d="M1970 1816 c0 -2 8 -10 18 -17 15 -13 16 -12 3 4 -13 16 -21 21 -21
13z"/>
<path d="M1496 1793 c-6 -14 -5 -15 5 -6 7 7 10 15 7 18 -3 3 -9 -2 -12 -12z"/>
<path d="M1955 1781 c-3 -5 -1 -12 5 -16 5 -3 10 1 10 9 0 18 -6 21 -15 7z"/>
<path d="M1485 1759 c-3 -4 2 -6 10 -5 21 3 28 13 10 13 -9 0 -18 -4 -20 -8z"/>
<path d="M1455 1741 c-3 -5 -2 -12 3 -15 5 -3 9 1 9 9 0 17 -3 19 -12 6z"/>
<path d="M1573 1728 c-2 -18 0 -20 7 -8 12 18 13 30 2 30 -4 0 -9 -10 -9 -22z"/>
<path d="M1380 1700 c0 -5 5 -10 11 -10 5 0 7 5 4 10 -3 6 -8 10 -11 10 -2 0
-4 -4 -4 -10z"/>
<path d="M1503 1697 c-3 -6 -1 -7 5 -3 5 3 12 1 14 -6 3 -8 6 -7 10 3 7 17
-19 22 -29 6z"/>
<path d="M1470 1641 c0 -6 4 -13 10 -16 6 -3 7 1 4 9 -7 18 -14 21 -14 7z"/>
<path d="M2065 1641 c-3 -5 -1 -13 5 -16 7 -5 8 -11 1 -19 -7 -8 -6 -17 0 -26
8 -12 12 -12 16 -2 2 6 10 9 16 5 6 -3 3 4 -6 16 -8 13 -13 30 -10 37 6 16
-12 19 -22 5z"/>
<path d="M640 1635 c0 -7 30 -13 34 -7 3 4 -4 9 -15 9 -10 1 -19 0 -19 -2z"/>
<path d="M619 1602 c-1 -4 -1 -11 0 -16 1 -5 -6 -5 -16 -2 -14 6 -15 4 -6 -5
9 -9 16 -8 33 4 17 12 18 15 5 20 -8 4 -16 3 -16 -1z"/>
<path d="M1470 1599 c0 -5 5 -7 10 -4 6 3 10 8 10 11 0 2 -4 4 -10 4 -5 0 -10
-5 -10 -11z"/>
<path d="M1485 1577 c-11 -13 -18 -37 -11 -37 2 0 11 11 20 25 17 25 9 35 -9
12z"/>
<path d="M1336 1553 c-6 -14 -5 -15 5 -6 7 7 10 15 7 18 -3 3 -9 -2 -12 -12z"/>
<path d="M590 1550 c-9 -6 -10 -10 -3 -10 6 0 15 5 18 10 8 12 4 12 -15 0z"/>
<path d="M550 1540 c-9 -6 -10 -10 -3 -10 6 0 15 5 18 10 8 12 4 12 -15 0z"/>
<path d="M2090 1520 c6 -11 8 -20 4 -20 -3 0 -1 -6 5 -14 10 -11 8 -16 -8 -21
-22 -7 -27 -20 -11 -30 5 -3 15 3 22 14 8 14 16 17 24 10 8 -7 14 -6 19 1 4 6
3 10 -2 9 -20 -4 -27 2 -13 12 13 9 12 10 -2 5 -10 -3 -20 -1 -23 4 -3 5 3 11
12 13 17 4 17 5 0 6 -10 0 -16 5 -13 10 3 5 -1 12 -9 15 -13 4 -14 2 -5 -14z"/>
<path d="M1415 1520 c-3 -5 -1 -10 4 -10 6 0 11 5 11 10 0 6 -2 10 -4 10 -3 0
-8 -4 -11 -10z"/>
<path d="M1451 1520 c-9 -5 -4 -7 13 -7 29 0 32 2 13 10 -8 3 -20 2 -26 -3z"/>
<path d="M1270 1498 c0 -11 28 -10 35 1 3 6 -4 9 -15 8 -11 -1 -20 -5 -20 -9z"/>
<path d="M1306 1485 c-10 -8 -22 -12 -27 -10 -4 3 -10 1 -13 -4 -13 -21 12
-18 40 4 31 26 32 34 0 10z"/>
<path d="M1448 1493 c-10 -2 -18 -8 -18 -12 0 -12 25 -9 38 6 13 13 10 14 -20
6z"/>
<path d="M395 1481 c-3 -5 -2 -12 3 -15 5 -3 9 1 9 9 0 17 -3 19 -12 6z"/>
<path d="M483 1475 c0 -8 4 -12 9 -9 5 3 6 10 3 15 -9 13 -12 11 -12 -6z"/>
<path d="M430 1461 c0 -6 4 -13 10 -16 6 -3 7 1 4 9 -7 18 -14 21 -14 7z"/>
<path d="M455 1460 c3 -5 8 -10 11 -10 2 0 4 5 4 10 0 6 -5 10 -11 10 -5 0 -7
-4 -4 -10z"/>
<path d="M1410 1460 c0 -5 5 -10 11 -10 5 0 7 5 4 10 -3 6 -8 10 -11 10 -2 0
-4 -4 -4 -10z"/>
<path d="M1310 1445 c0 -8 4 -15 8 -15 5 0 9 7 9 15 0 8 -4 15 -9 15 -4 0 -8
-7 -8 -15z"/>
<path d="M390 1441 c0 -6 4 -12 8 -15 5 -3 9 1 9 9 0 8 -4 15 -9 15 -4 0 -8
-4 -8 -9z"/>
<path d="M1386 1442 c-3 -5 1 -9 9 -9 8 0 12 4 9 9 -3 4 -7 8 -9 8 -2 0 -6 -4
-9 -8z"/>
<path d="M1377 1401 c-3 -13 -1 -18 9 -14 7 2 10 11 7 19 -7 19 -10 18 -16 -5z"/>
<path d="M1335 1401 c-3 -5 -2 -12 3 -15 5 -3 9 1 9 9 0 17 -3 19 -12 6z"/>
<path d="M2056 1381 c-17 -19 -21 -32 -8 -29 13 2 42 -14 42 -25 0 -6 -3 -8
-6 -4 -4 3 -15 -4 -24 -16 -13 -16 -15 -26 -8 -34 13 -16 27 -8 24 14 -2 10 6
25 18 34 20 16 20 16 -3 24 -18 5 -20 9 -10 16 8 4 16 4 20 -3 4 -5 9 -6 12
-2 3 5 -5 17 -18 26 -21 16 -24 16 -39 -1z m28 0 c3 -5 -1 -11 -9 -14 -9 -4
-12 -1 -8 9 6 16 10 17 17 5z m-17 -96 c0 -8 -4 -12 -9 -9 -5 3 -6 10 -3 15 9
13 12 11 12 -6z"/>
<path d="M1345 1360 c-3 -6 1 -7 9 -4 18 7 21 14 7 14 -6 0 -13 -4 -16 -10z"/>
<path d="M1342 1320 c0 -14 2 -19 5 -12 2 6 2 18 0 25 -3 6 -5 1 -5 -13z"/>
<path d="M1390 1330 c-13 -9 -13 -12 3 -24 17 -13 16 -14 -3 -19 -11 -3 -20
-11 -20 -19 0 -8 3 -9 8 -2 4 6 16 14 27 18 19 7 19 8 3 20 -13 10 -15 15 -6
24 15 15 8 15 -12 2z"/>
<path d="M2094 1295 c-3 -8 -4 -20 -2 -27 3 -7 7 -1 10 15 6 29 1 36 -8 12z"/>
<path d="M1393 1251 c1 -15 4 -17 14 -9 17 14 16 28 -1 28 -8 0 -14 -9 -13
-19z"/>
<path d="M1337 1241 c-3 -12 0 -24 5 -28 6 -3 8 -1 4 5 -3 5 -2 12 4 14 5 2 6
9 1 16 -6 10 -10 9 -14 -7z"/>
<path d="M2073 1230 c-1 -11 2 -20 5 -20 4 0 8 9 9 20 1 11 -2 20 -5 20 -4 0
-8 -9 -9 -20z"/>
<path d="M465 1220 c-4 -6 -10 -8 -14 -6 -4 3 -13 0 -21 -6 -13 -8 -13 -9 0
-5 17 5 43 -17 32 -27 -3 -4 2 -4 13 0 12 5 14 9 7 12 -10 3 -10 7 -2 17 7 8
7 15 1 19 -5 4 -12 2 -16 -4z"/>
<path d="M1352 1184 c-7 -8 -8 -14 -3 -14 10 0 25 19 20 25 -2 1 -10 -3 -17
-11z"/>
<path d="M435 1169 c-4 -6 -5 -12 -2 -15 2 -3 7 2 10 11 7 17 1 20 -8 4z"/>
<path d="M2015 1169 c-4 -6 -5 -12 -2 -15 2 -3 7 2 10 11 7 17 1 20 -8 4z"/>
<path d="M2066 1158 c3 -5 10 -6 15 -3 13 9 11 12 -6 12 -8 0 -12 -4 -9 -9z"/>
<path d="M505 1089 c-10 -15 3 -25 16 -12 7 7 7 13 1 17 -6 3 -14 1 -17 -5z"/>
<path d="M1993 1074 c4 -6 1 -17 -8 -24 -8 -7 -12 -16 -9 -22 3 -5 1 -15 -5
-22 -9 -10 -7 -15 9 -19 11 -3 23 0 27 5 3 6 1 8 -5 4 -6 -3 -13 -2 -17 4 -3
6 4 10 17 11 16 0 19 2 8 7 -17 8 -25 32 -11 32 5 0 11 -5 13 -12 3 -7 7 -4
12 7 4 11 4 16 0 13 -3 -4 -14 1 -23 10 -9 10 -13 13 -8 6z"/>
<path d="M2039 1033 c-13 -16 -12 -17 4 -4 16 13 21 21 13 21 -2 0 -10 -8 -17
-17z"/>
<path d="M569 1005 c-1 -3 -2 -9 -3 -14 0 -5 -4 -13 -8 -17 -11 -11 -10 -24 3
-24 5 0 8 4 5 9 -3 5 2 15 11 22 14 12 15 11 9 -9 -5 -16 -3 -22 7 -22 10 0
14 -7 11 -22 -4 -21 -4 -22 5 -3 6 15 5 23 -7 33 -10 7 -11 12 -4 12 9 0 9 5
0 20 -12 19 -26 26 -29 15z"/>
<path d="M2006 958 c3 -5 10 -6 15 -3 13 9 11 12 -6 12 -8 0 -12 -4 -9 -9z"/>
<path d="M555 929 c-4 -6 -5 -12 -2 -15 2 -3 7 2 10 11 7 17 1 20 -8 4z"/>
<path d="M1971 891 c-8 -5 -9 -11 -3 -15 5 -3 12 1 16 9 6 17 6 18 -13 6z"/>
<path d="M673 853 c10 -3 14 -9 10 -16 -4 -7 2 -5 12 3 17 14 18 13 12 -2 -14
-36 -17 -52 -6 -30 7 12 16 22 21 22 12 0 10 -14 -4 -30 -11 -12 -10 -12 4 -2
11 9 18 10 23 2 3 -5 1 -10 -6 -10 -7 0 -10 -2 -7 -5 3 -3 15 -2 27 3 20 7 21
9 7 21 -9 8 -16 10 -16 6 0 -4 -9 3 -19 16 -11 15 -30 25 -47 26 -16 0 -21 -1
-11 -4z"/>
<path d="M656 822 c-3 -5 1 -9 9 -9 8 0 12 4 9 9 -3 4 -7 8 -9 8 -2 0 -6 -4
-9 -8z"/>
<path d="M1900 801 c0 -6 4 -13 10 -16 6 -3 7 1 4 9 -7 18 -14 21 -14 7z"/>
<path d="M1885 741 c-24 -31 -28 -51 -9 -44 8 3 14 9 14 15 0 5 5 6 10 3 6 -4
7 -11 4 -17 -4 -7 -2 -8 5 -4 6 4 8 13 4 19 -13 21 -12 37 3 37 8 0 14 4 14 8
0 18 -27 8 -45 -17z m15 -5 c0 -2 -8 -10 -17 -17 -16 -13 -17 -12 -4 4 13 16
21 21 21 13z"/>
<path d="M775 720 c3 -5 8 -10 11 -10 2 0 4 5 4 10 0 6 -5 10 -11 10 -5 0 -7
-4 -4 -10z"/>
<path d="M834 642 c4 -3 14 -7 22 -8 9 -1 13 0 10 4 -4 3 -14 7 -22 8 -9 1
-13 0 -10 -4z"/>
<path d="M896 607 c3 -8 11 -14 19 -14 20 0 19 4 -5 17 -15 8 -18 8 -14 -3z"/>
<path d="M965 579 c-4 -6 -13 -8 -20 -5 -9 3 -12 -2 -10 -16 3 -11 7 -23 11
-27 4 -3 5 2 1 11 -3 9 0 19 8 21 19 8 27 -4 13 -20 -8 -11 -7 -12 6 -7 18 7
22 34 5 34 -5 0 -7 5 -4 10 3 6 4 10 1 10 -3 0 -8 -5 -11 -11z"/>
<path d="M1000 561 c0 -6 6 -11 13 -11 6 0 3 -8 -8 -16 -20 -16 -20 -16 2 -9
19 5 22 3 17 -12 -5 -14 -4 -15 4 -4 7 10 7 21 1 32 -11 22 -29 34 -29 20z"/>
<path d="M1094 488 c-4 -6 -3 -8 3 -5 6 4 13 0 17 -8 3 -9 12 -12 23 -8 15 5
16 3 6 -8 -7 -7 -13 -18 -13 -23 0 -6 5 -3 11 7 15 26 32 21 19 -5 -10 -21
-10 -21 3 -5 14 17 33 25 24 10 -3 -5 1 -13 8 -20 10 -10 14 -9 19 2 7 20
-109 81 -120 63z"/>
<path d="M1080 466 c0 -2 7 -7 16 -10 8 -3 12 -2 9 4 -6 10 -25 14 -25 6z"/>
<path d="M1260 403 c0 -6 5 -15 12 -19 7 -5 5 -12 -8 -22 -15 -11 -15 -13 -2
-9 9 3 24 -3 34 -14 9 -10 22 -19 28 -19 8 0 8 2 0 8 -6 4 -10 15 -9 24 2 10
0 16 -5 15 -4 -1 -17 9 -28 23 -12 14 -21 20 -22 13z m41 -50 c13 -16 12 -17
-3 -4 -17 13 -22 21 -14 21 2 0 10 -8 17 -17z"/>
<path d="M1270 330 c0 -5 5 -10 11 -10 5 0 7 5 4 10 -3 6 -8 10 -11 10 -2 0
-4 -4 -4 -10z"/>
<path d="M1753 285 c0 -8 4 -12 9 -9 5 3 6 10 3 15 -9 13 -12 11 -12 -6z"/>
<path d="M1390 282 c0 -7 5 -12 11 -12 5 0 8 -4 4 -9 -3 -5 -1 -12 4 -15 13
-8 7 22 -7 36 -9 9 -12 9 -12 0z"/>
<path d="M1380 254 c0 -13 18 -39 24 -34 2 3 -2 14 -10 24 -8 11 -14 16 -14
10z"/>
<path d="M1427 227 c-3 -7 3 -13 14 -13 13 0 15 3 7 13 -6 7 -12 13 -13 13 -2
0 -5 -6 -8 -13z"/>
<path d="M1493 201 c0 -11 5 -18 9 -15 4 3 5 11 1 19 -7 21 -12 19 -10 -4z"/>
</g>
</svg>
