<?xml version="1.0" standalone="no"?>
<!DOCTYPE svg PUBLIC "-//W3C//DTD SVG 1.1//EN" "http://www.w3.org/Graphics/SVG/1.1/DTD/svg11.dtd" >
<svg>
<metadata>
Created by FontForge 20090622 at Fri Feb 21 12:21:47 2020
 By deploy user
COPYRIGHT ESSELTE LETRASET LTD., 1990 
</metadata>
<defs>
<font id="PumpDemiBoldPlain" horiz-adv-x="400" >
  <font-face 
    font-family="Pump Demi Bold Plain"
    font-weight="500"
    font-stretch="normal"
    units-per-em="1000"
    panose-1="0 0 0 0 0 0 0 0 0 0"
    ascent="800"
    descent="-200"
    x-height="484"
    cap-height="667"
    bbox="-57 -280 1121 875"
    underline-thickness="0"
    underline-position="0"
    unicode-range="U+0020-U+FB02"
  />
<missing-glyph horiz-adv-x="500" 
 />
    <glyph glyph-name=".notdef" horiz-adv-x="500" 
 />
    <glyph glyph-name=".null" horiz-adv-x="0" 
 />
    <glyph glyph-name="nonmarkingreturn" horiz-adv-x="333" 
 />
    <glyph glyph-name="space" unicode=" " horiz-adv-x="213" 
 />
    <glyph glyph-name="exclam" unicode="!" horiz-adv-x="309" 
d="M80 213l-13 454h175l-13 -454h-149zM60 81q0 39 27.5 67t67.5 28q39 0 66.5 -28t27.5 -67t-27.5 -66.5t-66.5 -27.5q-40 0 -67.5 27.5t-27.5 66.5z" />
    <glyph glyph-name="quotedbl" unicode="&#x22;" horiz-adv-x="477" 
d="M152 415h-23l-3 5q-24 38 -50 92q-22 48 -22 81q0 36 25.5 61.5t61.5 25.5q35 0 61 -25.5t26 -61.5q0 -33 -27 -88q-20 -44 -46 -85zM349 415h-24l-3 5q-31 52 -49 92q-23 47 -23 81q0 36 25.5 61.5t61.5 25.5t61.5 -25.5t25.5 -61.5q0 -35 -26 -88q-21 -43 -46 -85z" />
    <glyph glyph-name="numbersign" unicode="#" 
d="M33 0v667h334v-667h-334zM40 7h320v653h-320v-653z" />
    <glyph glyph-name="dollar" unicode="$" horiz-adv-x="419" 
d="M157 638v82h110v-45h20q32 0 75 -8v-167q-22 7 -43 7q-31 0 -50.5 -16t-19.5 -41q0 -28 36 -84q47 -71 56 -94q20 -43 20 -93q0 -117 -101 -171v-81h-110v56h-7q-48 0 -100 17v167q36 -18 66 -18q31 0 50.5 14.5t19.5 37.5q0 24 -38 78q-42 61 -59 102.5t-17 84.5
q0 109 92 172z" />
    <glyph glyph-name="percent" unicode="%" horiz-adv-x="794" 
d="M105 0l422 667h160l-422 -667h-160zM431 152q0 68 48 116.5t117 48.5q68 0 116.5 -48.5t48.5 -116.5t-48.5 -116.5t-116.5 -48.5q-69 0 -117 48.5t-48 116.5zM33 515q0 68 48.5 116.5t116.5 48.5t116.5 -48.5t48.5 -116.5t-48.5 -116.5t-116.5 -48.5t-116.5 48.5
t-48.5 116.5zM545 152q0 -21 14.5 -36t36.5 -15q21 0 36 15t15 36t-15 36t-36 15q-22 0 -36.5 -15t-14.5 -36zM147 515q0 -21 15 -36t36 -15t36 15t15 36t-15 36t-36 15t-36 -15t-15 -36z" />
    <glyph glyph-name="ampersand" unicode="&#x26;" horiz-adv-x="590" 
d="M385 287h136q0 -94 -29 -159l98 -128h-176l-21 27q-55 -41 -120 -41q-97 0 -165 66.5t-68 161.5q0 111 84 168q-33 52 -33 106q0 80 55 136t134 56t134.5 -55.5t55.5 -134.5q0 -106 -97 -165l-81 108q47 13 47 57q0 26 -17 43t-42 17t-41.5 -17t-16.5 -41q0 -25 27 -60
l66 -87q-117 -42 -117 -123q0 -37 25 -61.5t62 -24.5q34 0 59 20.5t34 55.5q7 32 7 75z" />
    <glyph glyph-name="quotesingle" unicode="'" horiz-adv-x="281" 
d="M152 415h-23l-3 5q-24 38 -50 92q-22 48 -22 81q0 36 25.5 61.5t61.5 25.5q35 0 61 -25.5t26 -61.5q0 -33 -27 -88q-20 -44 -46 -85z" />
    <glyph glyph-name="parenleft" unicode="(" 
d="M389 -116h-133q-161 203 -161 449q0 127 39 235.5t122 214.5h133q-71 -120 -102 -224.5t-31 -225.5q0 -120 31 -224.5t102 -224.5z" />
    <glyph glyph-name="parenright" unicode=")" 
d="M144 -116h-133q71 120 102 224.5t31 224.5q0 121 -31 225.5t-102 224.5h133q83 -106 122 -214.5t39 -235.5q0 -246 -161 -449z" />
    <glyph glyph-name="asterisk" unicode="*" horiz-adv-x="512" 
d="M303 667v-132l126 41l29 -90l-125 -40l78 -108l-78 -57l-78 108l-77 -108l-78 57l78 108l-125 40l30 90l125 -40v131h95z" />
    <glyph glyph-name="plus" unicode="+" 
d="M33 0v667h334v-667h-334zM40 7h320v653h-320v-653z" />
    <glyph glyph-name="comma" unicode="," horiz-adv-x="298" 
d="M156 -120h-100q29 45 58 111q-67 32 -67 98q0 43 30 73t73 30q42 0 72 -30t30 -71q0 -65 -96 -211z" />
    <glyph glyph-name="hyphen" unicode="-" horiz-adv-x="378" 
d="M54 184v147h271v-147h-271z" />
    <glyph glyph-name="period" unicode="." horiz-adv-x="298" 
d="M47 89q0 43 30 73t72 30q43 0 73 -30t30 -73q0 -42 -30 -72t-73 -30q-42 0 -72 30t-30 72z" />
    <glyph glyph-name="slash" unicode="/" horiz-adv-x="521" 
d="M0 -67l359 800h162l-359 -800h-162z" />
    <glyph glyph-name="zero" unicode="0" horiz-adv-x="747" 
d="M27 333q0 144 101.5 245.5t244.5 101.5q144 0 245.5 -101.5t101.5 -245.5q0 -143 -101.5 -244.5t-245.5 -101.5q-143 0 -244.5 101.5t-101.5 244.5zM204 333q0 -70 49.5 -119.5t119.5 -49.5t120 49.5t50 119.5q0 71 -49.5 120.5t-120.5 49.5q-70 0 -119.5 -50t-49.5 -120
z" />
    <glyph glyph-name="one" unicode="1" horiz-adv-x="285" 
d="M53 0v667h178v-667h-178z" />
    <glyph glyph-name="two" unicode="2" horiz-adv-x="556" 
d="M520 163v-163h-451l236 339q1 1 11 16l15 22q20 31 20 58q0 31 -22 52.5t-53 21.5q-33 0 -56 -23t-23 -56q0 -45 50 -71l-99 -142q-122 84 -122 213q0 102 74 176t176 74q101 0 174 -73t73 -173q0 -45 -16 -85t-57 -100l-60 -86h130z" />
    <glyph glyph-name="three" unicode="3" horiz-adv-x="447" 
d="M33 23v158q49 -30 95 -30q48 0 78 28t30 74q0 54 -43 86t-116 32l72 133h-116v163h374l-121 -214q127 -72 127 -208q0 -109 -72 -183.5t-178 -74.5q-66 0 -130 36z" />
    <glyph glyph-name="four" unicode="4" horiz-adv-x="571" 
d="M300 0v490l-105 -183h75v-150h-243v144l212 366h239v-360h60v-150h-60v-157h-178z" />
    <glyph glyph-name="five" unicode="5" horiz-adv-x="466" 
d="M44 28v155q68 -38 118 -38q44 0 70 23.5t26 63.5q0 111 -188 111h-30l44 324h338v-163h-209l-6 -49q106 -7 169 -67t63 -154q0 -103 -73 -175t-177 -72q-77 0 -145 41z" />
    <glyph glyph-name="six" unicode="6" horiz-adv-x="607" 
d="M196 667h200l-161 -314q-30 -59 -30 -94q0 -41 28.5 -69t69.5 -28q43 0 72 28.5t29 71.5q0 47 -31.5 74t-87.5 27h-11l86 167q100 -21 160 -94t60 -173q0 -116 -80.5 -196t-198.5 -80q-113 0 -193.5 80.5t-80.5 195.5q0 75 47 166z" />
    <glyph glyph-name="seven" unicode="7" horiz-adv-x="483" 
d="M77 0l160 490h-204v177h450l-220 -667h-186z" />
    <glyph glyph-name="eight" unicode="8" horiz-adv-x="541" 
d="M104 389q-32 49 -32 97q0 82 57.5 138t141.5 56q83 0 140.5 -56t57.5 -138q0 -48 -32 -97q74 -78 74 -168q0 -98 -69.5 -166t-170.5 -68t-171 68t-70 166q0 90 74 168zM192 221q0 -35 22.5 -58t56.5 -23q32 0 55 23t23 56q0 32 -23 55t-55 23t-55.5 -22.5t-23.5 -53.5z
M217 495q0 -21 16 -36.5t38 -15.5t37.5 15.5t15.5 37.5q0 23 -15.5 39t-38.5 16q-22 0 -37.5 -16.5t-15.5 -39.5z" />
    <glyph glyph-name="nine" unicode="9" horiz-adv-x="608" 
d="M210 0l161 313q31 59 31 94q0 41 -29 69.5t-71 28.5t-70.5 -28.5t-28.5 -71.5q0 -44 31 -73t79 -29q12 0 20 1l-86 -168q-97 18 -158.5 93t-61.5 175q0 117 79 196.5t195 79.5q118 0 199 -80.5t81 -196.5q0 -72 -48 -165l-123 -238h-200z" />
    <glyph glyph-name="colon" unicode=":" horiz-adv-x="298" 
d="M47 89q0 43 30 73t72 30q43 0 73 -30t30 -73q0 -42 -30 -72t-73 -30q-42 0 -72 30t-30 72zM47 367q0 43 30 73t72 30q43 0 73 -30t30 -73q0 -42 -30 -72t-73 -30q-42 0 -72 30t-30 72z" />
    <glyph glyph-name="semicolon" unicode=";" horiz-adv-x="298" 
d="M56 -120q29 45 58 111q-67 32 -67 98q0 43 30 73t73 30q42 0 72 -30t30 -71q0 -65 -96 -211h-100zM47 367q0 43 30 73t72 30q43 0 73 -30t30 -73q0 -42 -30 -72t-73 -30q-42 0 -72 30t-30 72z" />
    <glyph glyph-name="less" unicode="&#x3c;" 
d="M33 0v667h334v-667h-334zM40 7h320v653h-320v-653z" />
    <glyph glyph-name="equal" unicode="=" 
d="M33 0v667h334v-667h-334zM40 7h320v653h-320v-653z" />
    <glyph glyph-name="greater" unicode="&#x3e;" 
d="M33 0v667h334v-667h-334zM40 7h320v653h-320v-653z" />
    <glyph glyph-name="question" unicode="?" horiz-adv-x="510" 
d="M325 213h-153v11q0 66 16 98.5t63 61.5q42 26 52 37q15 18 15 42q0 28 -19 47t-47 19t-47 -19t-19 -46q0 -12 1 -21h-153q0 5 -0.5 12t-0.5 9q0 90 64 153t156 63q90 0 153.5 -63.5t63.5 -153.5q0 -119 -111 -192q-25 -17 -29.5 -23.5t-4.5 -27.5v-7zM154 81
q0 39 27.5 67t67.5 28q39 0 66.5 -28t27.5 -67t-27.5 -66.5t-66.5 -27.5q-40 0 -67.5 27.5t-27.5 66.5z" />
    <glyph glyph-name="at" unicode="@" 
d="M33 0v667h334v-667h-334zM40 7h320v653h-320v-653z" />
    <glyph glyph-name="A" unicode="A" horiz-adv-x="617" 
d="M567 0h-178v182h-161v-182h-178v373v24q0 64 13.5 108t45.5 82q76 93 200 93q119 0 195 -88q34 -39 48.5 -84t14.5 -111v-24v-373zM389 333v65q0 43 -10 64q-22 42 -70 42q-53 0 -73 -48q-8 -19 -8 -58v-65h161z" />
    <glyph glyph-name="B" unicode="B" horiz-adv-x="603" 
d="M53 0v667h228h25q63 -1 99 -11.5t64 -36.5q61 -55 61 -137q0 -53 -32 -106q78 -62 78 -163q0 -93 -63 -153t-160 -60h-20h-72v167h45h15q31 1 50 19.5t19 47.5q0 37 -30 54q-15 10 -55 10h-44v107h30h15q26 1 41 14.5t15 35.5t-14.5 35.5t-37.5 13.5h-18h-61v-504h-178z
" />
    <glyph glyph-name="C" unicode="C" horiz-adv-x="483" 
d="M457 177v-180q-39 -10 -80 -10q-146 0 -243 94q-107 102 -107 253q0 144 101.5 245t246.5 101q37 0 82 -11v-180q-42 13 -79 13q-74 0 -124 -48.5t-50 -120.5t50.5 -120.5t125.5 -48.5q34 0 77 13z" />
    <glyph glyph-name="D" unicode="D" horiz-adv-x="652" 
d="M53 0v667h167h22q99 -1 158 -18.5t111 -62.5q55 -47 84.5 -112.5t29.5 -138.5q0 -92 -45.5 -170.5t-125.5 -122.5q-76 -42 -178 -42h-15v178h19q77 0 122.5 41.5t45.5 111.5q0 75 -50.5 119t-136.5 44h-30v-494h-178z" />
    <glyph glyph-name="E" unicode="E" horiz-adv-x="505" 
d="M455 151v-151h-210h-27q-88 1 -141 60q-47 53 -47 121q0 90 81 152q-70 60 -70 146q0 50 24.5 93.5t67.5 68.5q46 26 112 26h12h198v-151h-136h-26q-28 -2 -44 -16t-16 -37q0 -24 17.5 -39.5t44.5 -15.5h23h137v-149h-137h-15q-28 -1 -45 -16t-17 -38q0 -24 16.5 -39
t43.5 -15h18h136z" />
    <glyph glyph-name="F" unicode="F" horiz-adv-x="590" 
d="M50 0v373v24q0 66 14.5 111t48.5 84q76 88 196 88q75 0 136 -37.5t94 -103.5q28 -56 28 -147v-12h-178v8v10q0 44 -10 64q-22 42 -70 42q-52 0 -74 -48q-7 -15 -7 -58v-65h207v-153h-207v-180h-178z" />
    <glyph glyph-name="G" unicode="G" horiz-adv-x="600" 
d="M377 387h173v-384q-89 -16 -158 -16q-166 0 -270 107q-96 99 -96 237q0 87 40.5 164.5t111.5 125.5q89 59 225 59q72 0 147 -13v-179q-62 17 -129 17q-102 0 -155 -41q-60 -49 -60 -129q0 -44 21 -83t56 -61q37 -23 94 -24v220z" />
    <glyph glyph-name="H" unicode="H" horiz-adv-x="623" 
d="M53 0v667h178v-232h161v232h178v-667h-178v268h-161v-268h-178z" />
    <glyph glyph-name="I" unicode="I" horiz-adv-x="285" 
d="M53 0v667h178v-667h-178z" />
    <glyph glyph-name="J" unicode="J" horiz-adv-x="341" 
d="M291 667v-408v-31q0 -112 -54 -176q-54 -65 -143 -65q-34 0 -74 9v154q17 -6 33 -6q32 0 46 22t14 74v13v414h178z" />
    <glyph glyph-name="K" unicode="K" horiz-adv-x="598" 
d="M53 0v667h178v-239h28h13q55 0 74.5 28t19.5 107v22v82h178v-120v-23q0 -62 -14.5 -96t-53.5 -65q44 -39 59.5 -81.5t15.5 -122.5v-19v-140h-178v159v17q-1 62 -37 85q-22 14 -71 14h-9h-25v-275h-178z" />
    <glyph glyph-name="L" unicode="L" horiz-adv-x="343" 
d="M323 153v-153h-33h-37q-123 3 -175 104q-28 56 -28 164v24v375h178v-392v-22q0 -61 19 -81q20 -19 65 -19h11z" />
    <glyph glyph-name="M" unicode="M" horiz-adv-x="916" 
d="M228 0h-178v380v23q1 123 67 194q77 83 191 83q79 0 149 -47q68 47 149 47q58 0 112 -25t91 -70q57 -67 57 -176v-29v-380h-178v387v20q0 47 -11 64q-21 32 -59 32q-41 0 -60 -34q-11 -21 -11 -67v-15v-387h-178v387v15q0 49 -11 67q-21 34 -60 34q-23 0 -41 -13t-24 -33
q-4 -15 -5 -42v-17v-11v-387z" />
    <glyph glyph-name="N" unicode="N" horiz-adv-x="617" 
d="M228 0h-178v373v24q0 71 16.5 118t55.5 87q75 78 186 78q120 0 196 -88q34 -39 48.5 -84t14.5 -111v-24v-373h-178v398v17q0 43 -20.5 66t-58.5 23q-37 0 -59.5 -24.5t-22.5 -64.5v-17v-398z" />
    <glyph glyph-name="O" unicode="O" horiz-adv-x="747" 
d="M27 333q0 144 101.5 245.5t244.5 101.5q144 0 245.5 -101.5t101.5 -245.5q0 -143 -101.5 -244.5t-245.5 -101.5q-143 0 -244.5 101.5t-101.5 244.5zM204 333q0 -70 49.5 -119.5t119.5 -49.5t120 49.5t50 119.5q0 71 -49.5 120.5t-120.5 49.5q-70 0 -119.5 -50t-49.5 -120
z" />
    <glyph glyph-name="P" unicode="P" horiz-adv-x="578" 
d="M53 0v667h214h20q98 0 159 -39q49 -31 78.5 -85.5t29.5 -116.5q0 -101 -70.5 -172t-170.5 -71q-23 0 -52 5v179q22 -6 38 -6q33 0 54.5 20.5t21.5 51.5q0 33 -22 52t-62 19h-15h-45v-504h-178z" />
    <glyph glyph-name="Q" unicode="Q" horiz-adv-x="747" 
d="M712 112l-120 -119l-42 42q-86 -48 -172 -48q-142 0 -246.5 103.5t-104.5 243.5q0 138 103.5 242t240.5 104q138 0 243.5 -107t105.5 -247q0 -88 -48 -168l-1 -3zM204 333q0 -70 49.5 -119.5t119.5 -49.5t120 49.5t50 119.5q0 71 -49.5 120.5t-120.5 49.5
q-70 0 -119.5 -50t-49.5 -120z" />
    <glyph glyph-name="R" unicode="R" horiz-adv-x="598" 
d="M53 0v667h195h22q114 0 175 -32q52 -28 80 -75.5t28 -106.5q0 -90 -72 -152q42 -32 59.5 -69.5t17.5 -95.5v-17v-119h-178v118v16q-1 52 -23 73.5t-73 21.5h-23v131h20q94 0 94 72q0 34 -22 53t-63 19h-21h-38v-504h-178z" />
    <glyph glyph-name="S" unicode="S" horiz-adv-x="372" 
d="M17 4v165q33 -16 62 -16q32 0 53 14.5t21 36.5t-28 64q-46 66 -60 95q-26 55 -26 107q0 91 63 150.5t159 59.5q33 0 75 -9v-168q-25 8 -44 8q-31 0 -50 -16t-19 -41q0 -30 36 -84q46 -73 56 -94q20 -46 20 -93q0 -88 -59.5 -142t-157.5 -54q-49 0 -101 17z" />
    <glyph glyph-name="T" unicode="T" horiz-adv-x="498" 
d="M160 0v490h-140v177h458v-177h-140v-490h-178z" />
    <glyph glyph-name="U" unicode="U" horiz-adv-x="617" 
d="M50 667h178v-399q0 -44 10 -63q21 -42 71 -42q35 0 57.5 24.5t22.5 63.5v17v399h178v-374v-24q0 -70 -16.5 -117t-55.5 -88q-74 -77 -186 -77q-120 0 -196 87q-34 39 -48.5 84t-14.5 111v24v374z" />
    <glyph glyph-name="V" unicode="V" horiz-adv-x="584" 
d="M35 667h177v-23q0 -164 25 -273q19 -86 55 -164q44 98 61.5 195t17.5 242v23h178q1 -24 1 -53q0 -190 -46 -345q-37 -128 -125 -269h-174q-86 136 -126 269q-46 155 -46 346q0 4 2 52z" />
    <glyph glyph-name="W" unicode="W" horiz-adv-x="916" 
d="M50 667h178v-387q0 -24 1 -33q1 -83 69 -83q44 0 63 39q8 16 8 62v15v387h178v-387v-16q0 -49 13 -70q21 -30 58 -30q43 0 61 36q9 17 9 61v19v387h178v-380v-30q-1 -119 -68 -188q-79 -82 -192 -82q-81 0 -149 47q-70 -47 -149 -47q-59 0 -112 25t-90 70q-56 69 -56 182
v23v380z" />
    <glyph glyph-name="X" unicode="X" horiz-adv-x="597" 
d="M40 0v118v21q1 69 21 117t68 94q-49 46 -69 94.5t-20 119.5v19v84h178v-127v-21q1 -40 22 -62.5t58 -22.5t59 23.5t22 61.5v21v127h178v-84v-19q0 -72 -20 -119.5t-69 -94.5q48 -47 68.5 -95.5t20.5 -115.5v-21v-118h-178v134v20q0 46 -17 70q-24 32 -64 32t-64 -32
q-16 -23 -16 -70v-20v-134h-178z" />
    <glyph glyph-name="Y" unicode="Y" horiz-adv-x="584" 
d="M203 0v212q-74 29 -119 89q-29 38 -40 78.5t-11 107.5v20v160h178v-182v-18q1 -44 22.5 -69t58.5 -25t58.5 25.5t21.5 68.5v18v182h178v-160v-20q0 -73 -13.5 -116.5t-47.5 -83.5q-43 -49 -108 -75v-212h-178z" />
    <glyph glyph-name="Z" unicode="Z" horiz-adv-x="533" 
d="M520 153v-153h-500l227 514h-217v153h477l-225 -514h238z" />
    <glyph glyph-name="bracketleft" unicode="[" 
d="M109 783h221v-133h-60v-633h60v-133h-221v899z" />
    <glyph glyph-name="backslash" unicode="\" horiz-adv-x="521" 
d="M521 -67h-162l-359 800h162z" />
    <glyph glyph-name="bracketright" unicode="]" 
d="M291 783v-899h-221v133h60v633h-60v133h221z" />
    <glyph glyph-name="asciicircum" unicode="^" 
d="M33 0v667h334v-667h-334zM40 7h320v653h-320v-653z" />
    <glyph glyph-name="underscore" unicode="_" horiz-adv-x="500" 
d="M0 -280v147h500v-147h-500z" />
    <glyph glyph-name="grave" unicode="`" horiz-adv-x="377" 
d="M310 545h-117l-126 130h166z" />
    <glyph glyph-name="a" unicode="a" horiz-adv-x="570" 
d="M523 0h-163v198v22q0 44 -12 67q-22 43 -74 43q-37 0 -63 -26t-26 -64q0 -37 26.5 -62.5t64.5 -25.5q22 0 54 11v-167q-26 -6 -52 -6q-107 0 -181 72.5t-74 176.5q0 105 73 179t177 74q105 0 177.5 -72t72.5 -176v-25v-219z" />
    <glyph glyph-name="b" unicode="b" horiz-adv-x="570" 
d="M47 667h163v-383v-22q0 -44 12 -67q23 -43 74 -43q37 0 63 26t26 64q0 37 -26.5 62.5t-64.5 25.5q-22 0 -54 -11v167q26 6 52 6q107 0 181 -72.5t74 -176.5q0 -105 -73 -179t-177 -74q-105 0 -177.5 72t-72.5 176v25v404z" />
    <glyph glyph-name="c" unicode="c" horiz-adv-x="422" 
d="M336 179l79 -144q-64 -45 -145 -45q-101 0 -174 74t-73 177q0 106 73 178.5t179 72.5q74 0 141 -45l-80 -144q-30 26 -63 26q-37 0 -62.5 -25.5t-25.5 -62.5t25.5 -63t63.5 -26q34 0 62 27z" />
    <glyph glyph-name="d" unicode="d" horiz-adv-x="570" 
d="M523 667v-404v-25q-1 -90 -54 -154q-77 -94 -196 -94q-104 0 -177 74t-73 179q0 104 74 176.5t181 72.5q26 0 52 -6v-167q-33 11 -54 11q-38 0 -64.5 -25.5t-26.5 -62.5q0 -38 26 -64t63 -26q51 0 74 43q12 24 12 67v22v383h163z" />
    <glyph glyph-name="e" unicode="e" horiz-adv-x="496" 
d="M422 191l39 -159q-75 -42 -161 -42q-118 0 -197.5 72.5t-79.5 180.5q0 104 73.5 176.5t178.5 72.5q138 0 214 -119l-203 -220q9 -2 21 -2q53 0 115 40zM311 324q-18 9 -38 9q-36 0 -62 -26t-26 -63q0 -21 12 -44z" />
    <glyph glyph-name="f" unicode="f" horiz-adv-x="323" 
d="M50 0v399q0 122 43 186q28 43 78.5 67.5t109.5 24.5q15 0 36 -4v-133q-91 0 -104 -56h104v-153h-104v-331h-163z" />
    <glyph glyph-name="g" unicode="g" horiz-adv-x="556" 
d="M138 -182v144q40 -15 83 -15q96 0 121 68q9 27 9 80v124q0 46 -11 67q-23 42 -69 42q-34 0 -58.5 -24t-24.5 -58q0 -35 24.5 -58.5t61.5 -23.5q20 0 46 9v-144q-39 -10 -73 -10q-96 0 -160 64.5t-64 161.5q0 102 72.5 174.5t173.5 72.5q65 0 121.5 -32t89.5 -87
q33 -53 33 -146v-140q0 -109 -41 -172q-71 -108 -232 -108q-54 0 -102 11z" />
    <glyph glyph-name="h" unicode="h" horiz-adv-x="537" 
d="M50 0v667h163v-207q50 32 115 32q71 0 116.5 -49.5t45.5 -127.5v-15v-300h-163v247v16q-2 67 -58 67q-26 0 -41 -17t-15 -48v-19v-246h-163z" />
    <glyph glyph-name="i" unicode="i" horiz-adv-x="263" 
d="M50 0v484h163v-484h-163zM44 585q0 38 25 64.5t62 26.5t62.5 -26t25.5 -63q0 -36 -25.5 -61.5t-61.5 -25.5t-62 25t-26 60z" />
    <glyph glyph-name="j" unicode="j" horiz-adv-x="263" 
d="M-57 -188v122q20 -4 32 -4q47 0 65 36q10 17 10 67v26v13v412h163v-411v-18q0 -65 -7.5 -100.5t-28.5 -67.5q-53 -80 -163 -80q-34 0 -71 5zM44 585q0 38 25 64.5t62 26.5t62.5 -26t25.5 -63q0 -36 -25.5 -61.5t-61.5 -25.5t-62 25t-26 60z" />
    <glyph glyph-name="k" unicode="k" horiz-adv-x="523" 
d="M50 0v667h163v-297q103 3 104 114h163q-4 -107 -97 -163q56 -35 81.5 -84.5t25.5 -125.5v-21v-90h-163v69v19v21q0 52 -24 84q-32 44 -90 45v-238h-163z" />
    <glyph glyph-name="l" unicode="l" horiz-adv-x="263" 
d="M50 0v667h163v-667h-163z" />
    <glyph glyph-name="m" unicode="m" horiz-adv-x="810" 
d="M47 0v221v21q0 105 43 163q31 40 78 63.5t98 23.5q66 0 134 -46q69 46 139 46q54 0 102 -23t78 -64q44 -60 44 -163v-21v-221h-163v239v20q0 72 -56 72q-57 0 -57 -76v-17v-238h-163v238v17q-1 76 -58 76q-29 0 -42.5 -18t-13.5 -58v-16v-239h-163z" />
    <glyph glyph-name="n" unicode="n" horiz-adv-x="533" 
d="M210 0h-163v223v17q0 97 34 153q29 47 77.5 73t106.5 26q66 0 120.5 -33.5t79.5 -90.5q13 -28 17.5 -53t4.5 -75v-17v-223h-163v241v16q-1 74 -57 74q-57 0 -57 -74v-16v-241z" />
    <glyph glyph-name="o" unicode="o" horiz-adv-x="549" 
d="M23 241q0 104 73.5 177.5t177.5 73.5t177.5 -73.5t73.5 -177.5t-73.5 -177.5t-177.5 -73.5t-177.5 73.5t-73.5 177.5zM186 241q0 -37 26 -62.5t62 -25.5q37 0 62.5 25.5t25.5 62.5t-25.5 62.5t-62.5 25.5q-36 0 -62 -25.5t-26 -62.5z" />
    <glyph glyph-name="p" unicode="p" horiz-adv-x="570" 
d="M47 -183v375v32q0 107 53 174q36 44 88 69t110 25q104 0 176.5 -73t72.5 -178q0 -107 -73.5 -179t-183.5 -72q-25 0 -50 6v167q30 -11 52 -11q42 0 67.5 24t25.5 64q0 39 -24.5 64.5t-62.5 25.5q-23 0 -44 -12t-31 -31q-13 -23 -13 -68v-21v-381h-163z" />
    <glyph glyph-name="q" unicode="q" horiz-adv-x="570" 
d="M523 -183h-163v381v21q0 45 -13 68q-10 19 -31 31t-44 12q-38 0 -62 -25.5t-24 -64.5q0 -40 25 -64t67 -24q22 0 52 11v-167q-25 -6 -50 -6q-109 0 -182.5 72t-73.5 179q0 105 72 178t176 73q58 0 110 -25t88 -69q53 -67 53 -174v-32v-375z" />
    <glyph glyph-name="r" unicode="r" horiz-adv-x="297" 
d="M47 0v226v23q0 125 75 190q59 53 146 53q12 0 22 -1v-166q-15 5 -25 5q-36 0 -49 -34q-6 -16 -6 -57v-12v-227h-163z" />
    <glyph glyph-name="s" unicode="s" horiz-adv-x="364" 
d="M20 -10v167q41 0 59 16.5t20 58.5l4 52q7 110 81 164q61 44 138 44q13 0 25 -1v-167q-6 1 -15 1q-34 0 -49 -18.5t-17 -63.5l-3 -55q-5 -88 -66 -143t-154 -55h-23z" />
    <glyph glyph-name="t" unicode="t" horiz-adv-x="327" 
d="M300 484v-163h-90v-78v-22q0 -70 65 -70q1 0 25 2v-161q-15 -2 -32 -2q-112 0 -177 85q-25 34 -34.5 72.5t-9.5 109.5v15v355h163v-143h90z" />
    <glyph glyph-name="u" unicode="u" horiz-adv-x="533" 
d="M324 484h163v-225v-17q0 -97 -34 -153q-30 -47 -78.5 -73t-106.5 -26q-66 0 -120 33.5t-80 90.5q-21 47 -21 128v17v225h163v-243v-16q0 -74 57 -74t57 74v16v243z" />
    <glyph glyph-name="v" unicode="v" horiz-adv-x="501" 
d="M33 484h164l-1 -16v-45q0 -100 12 -158.5t42 -104.5q30 47 42 105.5t12 158.5v44v16h163v-22q0 -120 -9 -188t-32 -126q-28 -72 -95 -148h-161q-81 89 -109 183.5t-28 278.5v22z" />
    <glyph glyph-name="w" unicode="w" horiz-adv-x="810" 
d="M763 484v-223v-21q0 -105 -43 -163q-31 -40 -78 -63.5t-98 -23.5q-66 0 -134 46q-69 -46 -139 -46q-54 0 -102 23t-78 64q-44 60 -44 163v21v223h163v-241v-20q0 -72 56 -72q58 0 58 76v17v240h163v-240v-17q0 -76 57 -76q56 0 56 76v16v241h163z" />
    <glyph glyph-name="x" unicode="x" horiz-adv-x="520" 
d="M40 484h163v-51v-20q1 -72 57 -72q57 0 57 72v20v51h163v-23q0 -78 -13.5 -116.5t-57.5 -84.5q41 -44 56 -82t15 -101v-18v-59h-163v88v20q-1 34 -16 53t-41 19t-41.5 -20t-15.5 -52v-20v-88h-163v59v18q0 63 15 101t56 82q-44 46 -57.5 85t-13.5 117v22z" />
    <glyph glyph-name="y" unicode="y" horiz-adv-x="537" 
d="M47 484h163v-217v-17q0 -72 57 -72q30 0 43.5 18t13.5 58v15v215h163v-376v-34q-1 -114 -61 -182q-75 -85 -213 -85q-51 0 -106 12v145q46 -17 88 -17q53 0 83 23t46 77q-65 -31 -113 -31q-79 0 -121.5 49t-42.5 138v14v267z" />
    <glyph glyph-name="z" unicode="z" horiz-adv-x="473" 
d="M447 153v-153h-433l179 331h-166v153h420l-180 -331h180z" />
    <glyph glyph-name="braceleft" unicode="{" 
d="M33 0v667h334v-667h-334zM40 7h320v653h-320v-653z" />
    <glyph glyph-name="bar" unicode="|" 
d="M33 0v667h334v-667h-334zM40 7h320v653h-320v-653z" />
    <glyph glyph-name="braceright" unicode="}" 
d="M33 0v667h334v-667h-334zM40 7h320v653h-320v-653z" />
    <glyph glyph-name="asciitilde" unicode="~" 
d="M33 0v667h334v-667h-334zM40 7h320v653h-320v-653z" />
    <glyph glyph-name="nbspace" unicode="&#xa0;" horiz-adv-x="213" 
 />
    <glyph glyph-name="exclamdown" unicode="&#xa1;" horiz-adv-x="309" 
d="M80 453h149l13 -453h-175zM60 585q0 40 27.5 67.5t67.5 27.5q39 0 66.5 -27.5t27.5 -67.5q0 -39 -27.5 -66.5t-66.5 -27.5q-40 0 -67.5 27.5t-27.5 66.5z" />
    <glyph glyph-name="cent" unicode="&#xa2;" horiz-adv-x="446" 
d="M330 53h-111v52q-84 24 -134.5 90.5t-50.5 151.5t51.5 152.5t133.5 89.5v51h111v-47h4q47 -10 92 -40l-80 -144q-30 26 -62 26q-37 0 -62.5 -25.5t-25.5 -62.5t25.5 -62.5t62.5 -25.5q33 0 62 26l79 -143q-42 -30 -95 -41v-48z" />
    <glyph glyph-name="sterling" unicode="&#xa3;" horiz-adv-x="569" 
d="M539 163v-163h-479l40 253h-37v150h61l10 60q14 85 54 134q67 83 184 83q108 0 187 -82l-123 -118q-30 30 -62 30q-34 0 -51 -23.5t-28 -83.5h158v-150h-182l-14 -90h282z" />
    <glyph glyph-name="currency" unicode="&#xa4;" 
d="M33 0v667h334v-667h-334zM40 7h320v653h-320v-653z" />
    <glyph glyph-name="yen" unicode="&#xa5;" horiz-adv-x="597" 
d="M210 0v103h-70v107h70v59q-76 31 -119 88q-28 37 -39.5 79t-11.5 108v20v103h178v-125q0 -45 9 -64q8 -22 28 -35t44 -13q26 0 46 14.5t28 39.5q6 21 6 58v125h178v-103v-20q0 -72 -14 -116.5t-48 -83.5q-39 -46 -107 -75v-59h70v-107h-70v-103h-178z" />
    <glyph glyph-name="section" unicode="&#xa7;" 
d="M33 0v667h334v-667h-334zM40 7h320v653h-320v-653z" />
    <glyph glyph-name="dieresis" unicode="&#xa8;" horiz-adv-x="478" 
d="M67 610q0 27 19.5 46.5t46.5 19.5q28 0 47.5 -19.5t19.5 -46.5q0 -28 -19.5 -47.5t-47.5 -19.5q-27 0 -46.5 19.5t-19.5 47.5zM279 610q0 27 19 46.5t47 19.5t47.5 -19.5t19.5 -46.5q0 -28 -19.5 -47.5t-47.5 -19.5t-47 19.5t-19 47.5z" />
    <glyph glyph-name="copyright" unicode="&#xa9;" 
d="M33 0v667h334v-667h-334zM40 7h320v653h-320v-653z" />
    <glyph glyph-name="ordfeminine" unicode="&#xaa;" 
d="M33 0v667h334v-667h-334zM40 7h320v653h-320v-653z" />
    <glyph glyph-name="guillemotleft" unicode="&#xab;" horiz-adv-x="467" 
d="M413 66h-116l-77 184l77 179h116l-76 -179zM130 66l-77 184l77 179h117l-77 -179l77 -184h-117z" />
    <glyph glyph-name="logicalnot" unicode="&#xac;" 
d="M33 0v667h334v-667h-334zM40 7h320v653h-320v-653z" />
    <glyph glyph-name="registered" unicode="&#xae;" 
d="M33 0v667h334v-667h-334zM40 7h320v653h-320v-653z" />
    <glyph glyph-name="macron" unicode="&#xaf;" 
d="M33 0v667h334v-667h-334zM40 7h320v653h-320v-653z" />
    <glyph glyph-name="degree" unicode="&#xb0;" 
d="M33 0v667h334v-667h-334zM40 7h320v653h-320v-653z" />
    <glyph glyph-name="plusminus" unicode="&#xb1;" 
d="M33 0v667h334v-667h-334zM40 7h320v653h-320v-653z" />
    <glyph glyph-name="acute" unicode="&#xb4;" horiz-adv-x="377" 
d="M67 545l76 130h167l-127 -130h-116z" />
    <glyph glyph-name="mu" unicode="&#xb5;" 
d="M33 0v667h334v-667h-334zM40 7h320v653h-320v-653z" />
    <glyph glyph-name="paragraph" unicode="&#xb6;" 
d="M33 0v667h334v-667h-334zM40 7h320v653h-320v-653z" />
    <glyph glyph-name="periodcentered" unicode="&#xb7;" horiz-adv-x="298" 
d="M47 340q0 43 30 73t72 30q43 0 73 -30t30 -73t-30 -72.5t-73 -29.5q-42 0 -72 29.5t-30 72.5z" />
    <glyph glyph-name="cedilla" unicode="&#xb8;" 
d="M33 0v667h334v-667h-334zM40 7h320v653h-320v-653z" />
    <glyph glyph-name="ordmasculine" unicode="&#xba;" 
d="M33 0v667h334v-667h-334zM40 7h320v653h-320v-653z" />
    <glyph glyph-name="guillemotright" unicode="&#xbb;" horiz-adv-x="467" 
d="M170 66h-117l77 184l-77 179h117l77 -179zM337 66h-117l77 184l-77 179h117l76 -179z" />
    <glyph glyph-name="questiondown" unicode="&#xbf;" horiz-adv-x="510" 
d="M185 453h153v-10q0 -67 -16 -99.5t-63 -60.5q-44 -28 -52 -37q-15 -18 -15 -42q0 -28 19.5 -47t47.5 -19q27 0 46.5 19t19.5 46q0 4 -2 20h153q1 -9 1 -20q0 -90 -64 -153t-156 -63q-90 0 -153.5 63.5t-63.5 153.5q0 118 111 192q25 17 29.5 23.5t4.5 26.5v7zM356 585
q0 -39 -27.5 -66.5t-66.5 -27.5q-40 0 -67.5 27.5t-27.5 66.5q0 40 27.5 67.5t67.5 27.5q39 0 66.5 -27.5t27.5 -67.5z" />
    <glyph glyph-name="Agrave" unicode="&#xc0;" horiz-adv-x="617" 
d="M567 0h-178v182h-161v-182h-178v373v24q0 64 13.5 108t45.5 82q76 93 200 93q119 0 195 -88q34 -39 48.5 -84t14.5 -111v-24v-373zM389 333v65q0 43 -10 64q-22 42 -70 42q-53 0 -73 -48q-8 -19 -8 -58v-65h161zM363 735h-117l-126 130h166z" />
    <glyph glyph-name="Aacute" unicode="&#xc1;" horiz-adv-x="617" 
d="M567 0h-178v182h-161v-182h-178v373v24q0 64 13.5 108t45.5 82q76 93 200 93q119 0 195 -88q34 -39 48.5 -84t14.5 -111v-24v-373zM389 333v65q0 43 -10 64q-22 42 -70 42q-53 0 -73 -48q-8 -19 -8 -58v-65h161zM240 733l76 130h167l-127 -130h-116z" />
    <glyph glyph-name="Acircumflex" unicode="&#xc2;" horiz-adv-x="617" 
d="M567 0h-178v182h-161v-182h-178v373v24q0 64 13.5 108t45.5 82q76 93 200 93q119 0 195 -88q34 -39 48.5 -84t14.5 -111v-24v-373zM389 333v65q0 43 -10 64q-22 42 -70 42q-53 0 -73 -48q-8 -19 -8 -58v-65h161zM148 733l93 130h133l94 -130h-134l-26 53l-27 -53h-133z
" />
    <glyph glyph-name="Atilde" unicode="&#xc3;" horiz-adv-x="617" 
d="M567 0h-178v182h-161v-182h-178v373v24q0 64 13.5 108t45.5 82q76 93 200 93q119 0 195 -88q34 -39 48.5 -84t14.5 -111v-24v-373zM389 333v65q0 43 -10 64q-22 42 -70 42q-53 0 -73 -48q-8 -19 -8 -58v-65h161zM475 785q-29 -27 -52.5 -37.5t-56.5 -10.5q-29 0 -79 15
q-16 5 -34 5q-24 0 -54 -23l-57 75q42 49 104 49q30 0 54 -7l35 -10q13 -4 29 -4q24 0 52 24z" />
    <glyph glyph-name="Adieresis" unicode="&#xc4;" horiz-adv-x="617" 
d="M567 0h-178v182h-161v-182h-178v373v24q0 64 13.5 108t45.5 82q76 93 200 93q119 0 195 -88q34 -39 48.5 -84t14.5 -111v-24v-373zM389 333v65q0 43 -10 64q-22 42 -70 42q-53 0 -73 -48q-8 -19 -8 -58v-65h161zM136 798q0 27 19.5 46.5t46.5 19.5q28 0 47.5 -19.5
t19.5 -46.5q0 -28 -19.5 -47.5t-47.5 -19.5q-27 0 -46.5 19.5t-19.5 47.5zM348 798q0 27 19 46.5t47 19.5t47.5 -19.5t19.5 -46.5q0 -28 -19.5 -47.5t-47.5 -19.5t-47 19.5t-19 47.5z" />
    <glyph glyph-name="Aring" unicode="&#xc5;" horiz-adv-x="617" 
d="M567 0h-178v182h-161v-182h-178v373v24q0 64 13.5 108t45.5 82q76 93 200 93q119 0 195 -88q34 -39 48.5 -84t14.5 -111v-24v-373zM389 333v65q0 43 -10 64q-22 42 -70 42q-53 0 -73 -48q-8 -19 -8 -58v-65h161zM229 797q0 32 23 55t56 23t56.5 -23t23.5 -55t-23.5 -54.5
t-56.5 -22.5t-56 22.5t-23 54.5zM282 797q0 -11 7.5 -18.5t18.5 -7.5t19 7.5t8 18.5t-8 19t-19 8t-18.5 -8t-7.5 -19z" />
    <glyph glyph-name="AE" unicode="&#xc6;" horiz-adv-x="832" 
d="M228 0h-178v373v24q0 89 28 142q33 67 94 104t137 37q90 0 161 -55q54 42 135 42h177v-151h-137q-40 0 -56 -6q-30 -14 -30 -47q0 -15 9 -29t22 -19q15 -7 54 -7h138v-149h-138q-77 0 -77 -54q0 -16 8.5 -29.5t21.5 -18.5q13 -6 48 -6h137v-151h-170h-27q-177 3 -196 182
h-161v-182zM389 333v65v17q-1 41 -22.5 65t-57.5 24t-58.5 -24.5t-22.5 -64.5v-17v-65h161z" />
    <glyph glyph-name="Ccedilla" unicode="&#xc7;" horiz-adv-x="483" 
d="M378 -14v-36q68 -8 68 -73q0 -37 -25 -62.5t-63 -25.5q-32 0 -67 24l32 41q18 -11 30 -11q13 0 22 8t9 20q0 13 -9.5 22t-22.5 9q-10 0 -29 -8v96h-4q-129 22 -210.5 118t-81.5 226q0 143 101 244.5t244 101.5q37 0 85 -11v-180q-42 13 -80 13q-73 0 -123 -49t-50 -120
q0 -72 50.5 -121t124.5 -49q36 0 78 14v-180q-44 -11 -76 -11h-1h-2z" />
    <glyph glyph-name="Egrave" unicode="&#xc8;" horiz-adv-x="505" 
d="M455 151v-151h-210h-27q-88 1 -141 60q-47 53 -47 121q0 90 81 152q-70 60 -70 146q0 50 24.5 93.5t67.5 68.5q46 26 112 26h12h198v-151h-136h-26q-28 -2 -44 -16t-16 -37q0 -24 17.5 -39.5t44.5 -15.5h23h137v-149h-137h-15q-28 -1 -45 -16t-17 -38q0 -24 16.5 -39
t43.5 -15h18h136zM336 735h-117l-126 130h166z" />
    <glyph glyph-name="Eacute" unicode="&#xc9;" horiz-adv-x="505" 
d="M455 151v-151h-210h-27q-88 1 -141 60q-47 53 -47 121q0 90 81 152q-70 60 -70 146q0 50 24.5 93.5t67.5 68.5q46 26 112 26h12h198v-151h-136h-26q-28 -2 -44 -16t-16 -37q0 -24 17.5 -39.5t44.5 -15.5h23h137v-149h-137h-15q-28 -1 -45 -16t-17 -38q0 -24 16.5 -39
t43.5 -15h18h136zM213 733l76 130h167l-127 -130h-116z" />
    <glyph glyph-name="Ecircumflex" unicode="&#xca;" horiz-adv-x="505" 
d="M455 151v-151h-210h-27q-88 1 -141 60q-47 53 -47 121q0 90 81 152q-70 60 -70 146q0 50 24.5 93.5t67.5 68.5q46 26 112 26h12h198v-151h-136h-26q-28 -2 -44 -16t-16 -37q0 -24 17.5 -39.5t44.5 -15.5h23h137v-149h-137h-15q-28 -1 -45 -16t-17 -38q0 -24 16.5 -39
t43.5 -15h18h136zM107 733l93 130h133l94 -130h-134l-26 53l-27 -53h-133z" />
    <glyph glyph-name="Edieresis" unicode="&#xcb;" horiz-adv-x="505" 
d="M455 151v-151h-210h-27q-88 1 -141 60q-47 53 -47 121q0 90 81 152q-70 60 -70 146q0 50 24.5 93.5t67.5 68.5q46 26 112 26h12h198v-151h-136h-26q-28 -2 -44 -16t-16 -37q0 -24 17.5 -39.5t44.5 -15.5h23h137v-149h-137h-15q-28 -1 -45 -16t-17 -38q0 -24 16.5 -39
t43.5 -15h18h136zM80 798q0 27 19.5 46.5t46.5 19.5q28 0 47.5 -19.5t19.5 -46.5q0 -28 -19.5 -47.5t-47.5 -19.5q-27 0 -46.5 19.5t-19.5 47.5zM292 798q0 27 19 46.5t47 19.5t47.5 -19.5t19.5 -46.5q0 -28 -19.5 -47.5t-47.5 -19.5t-47 19.5t-19 47.5z" />
    <glyph glyph-name="Igrave" unicode="&#xcc;" horiz-adv-x="285" 
d="M53 0v667h178v-667h-178zM296 735h-117l-126 130h166z" />
    <glyph glyph-name="Iacute" unicode="&#xcd;" horiz-adv-x="285" 
d="M53 0v667h178v-667h-178zM81 733l76 130h167l-127 -130h-116z" />
    <glyph glyph-name="Icircumflex" unicode="&#xce;" horiz-adv-x="285" 
d="M53 0v667h178v-667h-178zM53 733l93 130h133l94 -130h-134l-26 53l-27 -53h-133z" />
    <glyph glyph-name="Idieresis" unicode="&#xcf;" horiz-adv-x="285" 
d="M53 0v667h178v-667h-178zM53 798q0 27 19.5 46.5t46.5 19.5q28 0 47.5 -19.5t19.5 -46.5q0 -28 -19.5 -47.5t-47.5 -19.5q-27 0 -46.5 19.5t-19.5 47.5zM265 798q0 27 19 46.5t47 19.5t47.5 -19.5t19.5 -46.5q0 -28 -19.5 -47.5t-47.5 -19.5t-47 19.5t-19 47.5z" />
    <glyph glyph-name="Ntilde" unicode="&#xd1;" horiz-adv-x="617" 
d="M228 0h-178v373v24q0 71 16.5 118t55.5 87q75 78 186 78q120 0 196 -88q34 -39 48.5 -84t14.5 -111v-24v-373h-178v398v17q0 43 -20.5 66t-58.5 23q-37 0 -59.5 -24.5t-22.5 -64.5v-17v-398zM475 785q-29 -27 -52.5 -37.5t-56.5 -10.5q-29 0 -79 15q-16 5 -34 5
q-24 0 -54 -23l-57 75q42 49 104 49q30 0 54 -7l35 -10q13 -4 29 -4q24 0 52 24z" />
    <glyph glyph-name="Ograve" unicode="&#xd2;" horiz-adv-x="747" 
d="M27 333q0 144 101.5 245.5t244.5 101.5q144 0 245.5 -101.5t101.5 -245.5q0 -143 -101.5 -244.5t-245.5 -101.5q-143 0 -244.5 101.5t-101.5 244.5zM204 333q0 -70 49.5 -119.5t119.5 -49.5t120 49.5t50 119.5q0 71 -49.5 120.5t-120.5 49.5q-70 0 -119.5 -50t-49.5 -120
zM423 735h-117l-126 130h166z" />
    <glyph glyph-name="Oacute" unicode="&#xd3;" horiz-adv-x="747" 
d="M27 333q0 144 101.5 245.5t244.5 101.5q144 0 245.5 -101.5t101.5 -245.5q0 -143 -101.5 -244.5t-245.5 -101.5q-143 0 -244.5 101.5t-101.5 244.5zM204 333q0 -70 49.5 -119.5t119.5 -49.5t120 49.5t50 119.5q0 71 -49.5 120.5t-120.5 49.5q-70 0 -119.5 -50t-49.5 -120
zM300 733l76 130h167l-127 -130h-116z" />
    <glyph glyph-name="Ocircumflex" unicode="&#xd4;" horiz-adv-x="747" 
d="M27 333q0 144 101.5 245.5t244.5 101.5q144 0 245.5 -101.5t101.5 -245.5q0 -143 -101.5 -244.5t-245.5 -101.5q-143 0 -244.5 101.5t-101.5 244.5zM204 333q0 -70 49.5 -119.5t119.5 -49.5t120 49.5t50 119.5q0 71 -49.5 120.5t-120.5 49.5q-70 0 -119.5 -50t-49.5 -120
zM214 733l93 130h133l94 -130h-134l-26 53l-27 -53h-133z" />
    <glyph glyph-name="Otilde" unicode="&#xd5;" horiz-adv-x="747" 
d="M27 333q0 144 101.5 245.5t244.5 101.5q144 0 245.5 -101.5t101.5 -245.5q0 -143 -101.5 -244.5t-245.5 -101.5q-143 0 -244.5 101.5t-101.5 244.5zM204 333q0 -70 49.5 -119.5t119.5 -49.5t120 49.5t50 119.5q0 71 -49.5 120.5t-120.5 49.5q-70 0 -119.5 -50t-49.5 -120
zM540 785q-29 -27 -52.5 -37.5t-56.5 -10.5q-29 0 -79 15q-16 5 -34 5q-24 0 -54 -23l-57 75q42 49 104 49q30 0 54 -7l35 -10q13 -4 29 -4q24 0 52 24z" />
    <glyph glyph-name="Odieresis" unicode="&#xd6;" horiz-adv-x="747" 
d="M27 333q0 144 101.5 245.5t244.5 101.5q144 0 245.5 -101.5t101.5 -245.5q0 -143 -101.5 -244.5t-245.5 -101.5q-143 0 -244.5 101.5t-101.5 244.5zM204 333q0 -70 49.5 -119.5t119.5 -49.5t120 49.5t50 119.5q0 71 -49.5 120.5t-120.5 49.5q-70 0 -119.5 -50t-49.5 -120
zM201 798q0 27 19.5 46.5t46.5 19.5q28 0 47.5 -19.5t19.5 -46.5q0 -28 -19.5 -47.5t-47.5 -19.5q-27 0 -46.5 19.5t-19.5 47.5zM413 798q0 27 19 46.5t47 19.5t47.5 -19.5t19.5 -46.5q0 -28 -19.5 -47.5t-47.5 -19.5t-47 19.5t-19 47.5z" />
    <glyph glyph-name="Oslash" unicode="&#xd8;" horiz-adv-x="747" 
d="M79 150l-1 3q-51 85 -51 181q0 142 101.5 244t242.5 102q104 0 188 -53l43 43l108 -108l-44 -44q54 -83 54 -185q0 -143 -102 -244.5t-245 -101.5q-101 0 -184 54l-46 -46l-108 110zM373 503q-70 0 -119.5 -50t-49.5 -120t49.5 -119.5t119.5 -49.5t120 49.5t50 119.5
t-50 120t-120 50z" />
    <glyph glyph-name="Ugrave" unicode="&#xd9;" horiz-adv-x="617" 
d="M50 667h178v-399q0 -44 10 -63q21 -42 71 -42q35 0 57.5 24.5t22.5 63.5v17v399h178v-374v-24q0 -70 -16.5 -117t-55.5 -88q-74 -77 -186 -77q-120 0 -196 87q-34 39 -48.5 84t-14.5 111v24v374zM356 735h-117l-126 130h166z" />
    <glyph glyph-name="Uacute" unicode="&#xda;" horiz-adv-x="617" 
d="M50 667h178v-399q0 -44 10 -63q21 -42 71 -42q35 0 57.5 24.5t22.5 63.5v17v399h178v-374v-24q0 -70 -16.5 -117t-55.5 -88q-74 -77 -186 -77q-120 0 -196 87q-34 39 -48.5 84t-14.5 111v24v374zM247 733l76 130h167l-127 -130h-116z" />
    <glyph glyph-name="Ucircumflex" unicode="&#xdb;" horiz-adv-x="617" 
d="M50 667h178v-399q0 -44 10 -63q21 -42 71 -42q35 0 57.5 24.5t22.5 63.5v17v399h178v-374v-24q0 -70 -16.5 -117t-55.5 -88q-74 -77 -186 -77q-120 0 -196 87q-34 39 -48.5 84t-14.5 111v24v374zM148 733l93 130h133l94 -130h-134l-26 53l-27 -53h-133z" />
    <glyph glyph-name="Udieresis" unicode="&#xdc;" horiz-adv-x="617" 
d="M50 667h178v-399q0 -44 10 -63q21 -42 71 -42q35 0 57.5 24.5t22.5 63.5v17v399h178v-374v-24q0 -70 -16.5 -117t-55.5 -88q-74 -77 -186 -77q-120 0 -196 87q-34 39 -48.5 84t-14.5 111v24v374zM136 798q0 27 19.5 46.5t46.5 19.5q28 0 47.5 -19.5t19.5 -46.5
q0 -28 -19.5 -47.5t-47.5 -19.5q-27 0 -46.5 19.5t-19.5 47.5zM348 798q0 27 19 46.5t47 19.5t47.5 -19.5t19.5 -46.5q0 -28 -19.5 -47.5t-47.5 -19.5t-47 19.5t-19 47.5z" />
    <glyph glyph-name="germandbls" unicode="&#xdf;" horiz-adv-x="572" 
d="M210 0h-163v382v22q0 69 11.5 111t39.5 79q65 83 185 83q94 0 156 -53.5t62 -135.5q0 -73 -59 -132q107 -50 107 -167q0 -75 -47 -130q-59 -69 -174 -69q-42 0 -88 10v160q34 -14 58 -14q38 0 61 20.5t23 54.5q0 40 -32 59t-100 19h-10v97h18q84 0 84 58q0 26 -18.5 43
t-46.5 17q-43 0 -59 -36q-8 -17 -8 -71v-21v-386z" />
    <glyph glyph-name="agrave" unicode="&#xe0;" horiz-adv-x="570" 
d="M523 0h-163v198v22q0 44 -12 67q-22 43 -74 43q-37 0 -63 -26t-26 -64q0 -37 26.5 -62.5t64.5 -25.5q22 0 54 11v-167q-26 -6 -52 -6q-107 0 -181 72.5t-74 176.5q0 105 73 179t177 74q105 0 177.5 -72t72.5 -176v-25v-219zM329 545h-117l-126 130h166z" />
    <glyph glyph-name="aacute" unicode="&#xe1;" horiz-adv-x="570" 
d="M523 0h-163v198v22q0 44 -12 67q-22 43 -74 43q-37 0 -63 -26t-26 -64q0 -37 26.5 -62.5t64.5 -25.5q22 0 54 11v-167q-26 -6 -52 -6q-107 0 -181 72.5t-74 176.5q0 105 73 179t177 74q105 0 177.5 -72t72.5 -176v-25v-219zM206 545l76 130h167l-127 -130h-116z" />
    <glyph glyph-name="acircumflex" unicode="&#xe2;" horiz-adv-x="570" 
d="M523 0h-163v198v22q0 44 -12 67q-22 43 -74 43q-37 0 -63 -26t-26 -64q0 -37 26.5 -62.5t64.5 -25.5q22 0 54 11v-167q-26 -6 -52 -6q-107 0 -181 72.5t-74 176.5q0 105 73 179t177 74q105 0 177.5 -72t72.5 -176v-25v-219zM120 545l93 130h133l94 -130h-134l-26 53
l-27 -53h-133z" />
    <glyph glyph-name="atilde" unicode="&#xe3;" horiz-adv-x="570" 
d="M523 0h-163v198v22q0 44 -12 67q-22 43 -74 43q-37 0 -63 -26t-26 -64q0 -37 26.5 -62.5t64.5 -25.5q22 0 54 11v-167q-26 -6 -52 -6q-107 0 -181 72.5t-74 176.5q0 105 73 179t177 74q105 0 177.5 -72t72.5 -176v-25v-219zM449 597q-29 -27 -52.5 -37.5t-56.5 -10.5
q-29 0 -79 15q-16 5 -34 5q-24 0 -54 -23l-57 75q42 49 104 49q30 0 54 -7l35 -10q13 -4 29 -4q24 0 52 24z" />
    <glyph glyph-name="adieresis" unicode="&#xe4;" horiz-adv-x="570" 
d="M523 0h-163v198v22q0 44 -12 67q-22 43 -74 43q-37 0 -63 -26t-26 -64q0 -37 26.5 -62.5t64.5 -25.5q22 0 54 11v-167q-26 -6 -52 -6q-107 0 -181 72.5t-74 176.5q0 105 73 179t177 74q105 0 177.5 -72t72.5 -176v-25v-219zM106 610q0 27 19.5 46.5t46.5 19.5
q28 0 47.5 -19.5t19.5 -46.5q0 -28 -19.5 -47.5t-47.5 -19.5q-27 0 -46.5 19.5t-19.5 47.5zM318 610q0 27 19 46.5t47 19.5t47.5 -19.5t19.5 -46.5q0 -28 -19.5 -47.5t-47.5 -19.5t-47 19.5t-19 47.5z" />
    <glyph glyph-name="aring" unicode="&#xe5;" horiz-adv-x="570" 
d="M523 0h-163v198v22q0 44 -12 67q-22 43 -74 43q-37 0 -63 -26t-26 -64q0 -37 26.5 -62.5t64.5 -25.5q22 0 54 11v-167q-26 -6 -52 -6q-107 0 -181 72.5t-74 176.5q0 105 73 179t177 74q105 0 177.5 -72t72.5 -176v-25v-219zM193 609q0 32 23 55t56 23t56.5 -23t23.5 -55
t-23.5 -54.5t-56.5 -22.5t-56 22.5t-23 54.5zM246 609q0 -11 7.5 -18.5t18.5 -7.5t19 7.5t8 18.5t-8 19t-19 8t-18.5 -8t-7.5 -19z" />
    <glyph glyph-name="ae" unicode="&#xe6;" horiz-adv-x="831" 
d="M825 374l-203 -220q8 -2 19 -2q56 0 116 40l40 -160q-78 -42 -165 -42q-111 0 -188 67t-84 169l-2 25q-2 36 -25 57.5t-58 21.5q-38 0 -64.5 -25t-26.5 -62q0 -39 26.5 -64t66.5 -25q28 0 60 14v-168q-31 -10 -65 -10q-107 0 -178 70.5t-71 176.5q0 107 72.5 181
t177.5 74q100 0 166 -63q72 63 171 63q136 0 215 -118zM647 324q-21 10 -39 10q-35 0 -61 -26.5t-26 -62.5q0 -21 12 -44z" />
    <glyph glyph-name="ccedilla" unicode="&#xe7;" horiz-adv-x="422" 
d="M199 -187l31 41q19 -11 31 -11q13 0 22 8t9 20q0 13 -9.5 22t-22.5 9q-10 0 -30 -8v101q-90 17 -148.5 87t-58.5 161q0 104 73.5 176.5t178.5 72.5q76 0 141 -44l-80 -143q-29 25 -63 25q-37 0 -62.5 -25.5t-25.5 -62.5t26 -62.5t63 -25.5q33 0 62 26l79 -143
q-56 -41 -130 -45v-42q69 -8 69 -73q0 -37 -25 -62.5t-63 -25.5q-32 0 -67 24z" />
    <glyph glyph-name="egrave" unicode="&#xe8;" horiz-adv-x="496" 
d="M422 191l39 -159q-75 -42 -161 -42q-118 0 -197.5 72.5t-79.5 180.5q0 104 73.5 176.5t178.5 72.5q138 0 214 -119l-203 -220q9 -2 21 -2q53 0 115 40zM311 324q-18 9 -38 9q-36 0 -62 -26t-26 -63q0 -21 12 -44zM327 545h-117l-126 130h166z" />
    <glyph glyph-name="eacute" unicode="&#xe9;" horiz-adv-x="496" 
d="M422 191l39 -159q-75 -42 -161 -42q-118 0 -197.5 72.5t-79.5 180.5q0 104 73.5 176.5t178.5 72.5q138 0 214 -119l-203 -220q9 -2 21 -2q53 0 115 40zM311 324q-18 9 -38 9q-36 0 -62 -26t-26 -63q0 -21 12 -44zM209 545l76 130h167l-127 -130h-116z" />
    <glyph glyph-name="ecircumflex" unicode="&#xea;" horiz-adv-x="496" 
d="M422 191l39 -159q-75 -42 -161 -42q-118 0 -197.5 72.5t-79.5 180.5q0 104 73.5 176.5t178.5 72.5q138 0 214 -119l-203 -220q9 -2 21 -2q53 0 115 40zM311 324q-18 9 -38 9q-36 0 -62 -26t-26 -63q0 -21 12 -44zM100 545l93 130h133l94 -130h-134l-26 53l-27 -53h-133z
" />
    <glyph glyph-name="edieresis" unicode="&#xeb;" horiz-adv-x="496" 
d="M422 191l39 -159q-75 -42 -161 -42q-118 0 -197.5 72.5t-79.5 180.5q0 104 73.5 176.5t178.5 72.5q138 0 214 -119l-203 -220q9 -2 21 -2q53 0 115 40zM311 324q-18 9 -38 9q-36 0 -62 -26t-26 -63q0 -21 12 -44zM93 610q0 27 19.5 46.5t46.5 19.5q28 0 47.5 -19.5
t19.5 -46.5q0 -28 -19.5 -47.5t-47.5 -19.5q-27 0 -46.5 19.5t-19.5 47.5zM305 610q0 27 19 46.5t47 19.5t47.5 -19.5t19.5 -46.5q0 -28 -19.5 -47.5t-47.5 -19.5t-47 19.5t-19 47.5z" />
    <glyph glyph-name="igrave" unicode="&#xec;" horiz-adv-x="263" 
d="M50 0v484h163v-484h-163zM293 545h-117l-126 130h166z" />
    <glyph glyph-name="iacute" unicode="&#xed;" horiz-adv-x="263" 
d="M50 0v484h163v-484h-163zM67 545l76 130h167l-127 -130h-116z" />
    <glyph glyph-name="icircumflex" unicode="&#xee;" horiz-adv-x="263" 
d="M50 0v484h163v-484h-163zM50 545l93 130h133l94 -130h-134l-26 53l-27 -53h-133z" />
    <glyph glyph-name="idieresis" unicode="&#xef;" horiz-adv-x="263" 
d="M50 0v484h163v-484h-163zM50 610q0 27 19.5 46.5t46.5 19.5q28 0 47.5 -19.5t19.5 -46.5q0 -28 -19.5 -47.5t-47.5 -19.5q-27 0 -46.5 19.5t-19.5 47.5zM262 610q0 27 19 46.5t47 19.5t47.5 -19.5t19.5 -46.5q0 -28 -19.5 -47.5t-47.5 -19.5t-47 19.5t-19 47.5z" />
    <glyph glyph-name="ntilde" unicode="&#xf1;" horiz-adv-x="533" 
d="M210 0h-163v223v17q0 97 34 153q29 47 77.5 73t106.5 26q66 0 120.5 -33.5t79.5 -90.5q13 -28 17.5 -53t4.5 -75v-17v-223h-163v241v16q-1 74 -57 74q-57 0 -57 -74v-16v-241zM429 597q-29 -27 -52.5 -37.5t-56.5 -10.5q-29 0 -79 15q-16 5 -34 5q-24 0 -54 -23l-57 75
q42 49 104 49q30 0 54 -7l35 -10q13 -4 29 -4q24 0 52 24z" />
    <glyph glyph-name="ograve" unicode="&#xf2;" horiz-adv-x="549" 
d="M23 241q0 104 73.5 177.5t177.5 73.5t177.5 -73.5t73.5 -177.5t-73.5 -177.5t-177.5 -73.5t-177.5 73.5t-73.5 177.5zM186 241q0 -37 26 -62.5t62 -25.5q37 0 62.5 25.5t25.5 62.5t-25.5 62.5t-62.5 25.5q-36 0 -62 -25.5t-26 -62.5zM323 545h-117l-126 130h166z" />
    <glyph glyph-name="oacute" unicode="&#xf3;" horiz-adv-x="549" 
d="M23 241q0 104 73.5 177.5t177.5 73.5t177.5 -73.5t73.5 -177.5t-73.5 -177.5t-177.5 -73.5t-177.5 73.5t-73.5 177.5zM186 241q0 -37 26 -62.5t62 -25.5q37 0 62.5 25.5t25.5 62.5t-25.5 62.5t-62.5 25.5q-36 0 -62 -25.5t-26 -62.5zM214 545l76 130h167l-127 -130h-116z
" />
    <glyph glyph-name="ocircumflex" unicode="&#xf4;" horiz-adv-x="549" 
d="M23 241q0 104 73.5 177.5t177.5 73.5t177.5 -73.5t73.5 -177.5t-73.5 -177.5t-177.5 -73.5t-177.5 73.5t-73.5 177.5zM186 241q0 -37 26 -62.5t62 -25.5q37 0 62.5 25.5t25.5 62.5t-25.5 62.5t-62.5 25.5q-36 0 -62 -25.5t-26 -62.5zM114 545l93 130h133l94 -130h-134
l-26 53l-27 -53h-133z" />
    <glyph glyph-name="otilde" unicode="&#xf5;" horiz-adv-x="549" 
d="M23 241q0 104 73.5 177.5t177.5 73.5t177.5 -73.5t73.5 -177.5t-73.5 -177.5t-177.5 -73.5t-177.5 73.5t-73.5 177.5zM186 241q0 -37 26 -62.5t62 -25.5q37 0 62.5 25.5t25.5 62.5t-25.5 62.5t-62.5 25.5q-36 0 -62 -25.5t-26 -62.5zM440 597q-29 -27 -52.5 -37.5
t-56.5 -10.5q-29 0 -79 15q-16 5 -34 5q-24 0 -54 -23l-57 75q42 49 104 49q30 0 54 -7l35 -10q13 -4 29 -4q24 0 52 24z" />
    <glyph glyph-name="odieresis" unicode="&#xf6;" horiz-adv-x="549" 
d="M23 241q0 104 73.5 177.5t177.5 73.5t177.5 -73.5t73.5 -177.5t-73.5 -177.5t-177.5 -73.5t-177.5 73.5t-73.5 177.5zM186 241q0 -37 26 -62.5t62 -25.5q37 0 62.5 25.5t25.5 62.5t-25.5 62.5t-62.5 25.5q-36 0 -62 -25.5t-26 -62.5zM101 610q0 27 19.5 46.5t46.5 19.5
q28 0 47.5 -19.5t19.5 -46.5q0 -28 -19.5 -47.5t-47.5 -19.5q-27 0 -46.5 19.5t-19.5 47.5zM313 610q0 27 19 46.5t47 19.5t47.5 -19.5t19.5 -46.5q0 -28 -19.5 -47.5t-47.5 -19.5t-47 19.5t-19 47.5z" />
    <glyph glyph-name="divide" unicode="&#xf7;" 
d="M33 0v667h334v-667h-334zM40 7h320v653h-320v-653z" />
    <glyph glyph-name="oslash" unicode="&#xf8;" horiz-adv-x="549" 
d="M125 -6l-104 101l31 30q-29 53 -29 117q0 103 73.5 176.5t177.5 73.5q61 0 117 -28l34 34l102 -101l-33 -34q31 -58 31 -122q0 -104 -73.5 -177.5t-177.5 -73.5q-63 0 -121 32zM274 329q-36 0 -62 -25.5t-26 -62.5t26 -62.5t62 -25.5q37 0 62.5 25.5t25.5 62.5
t-25.5 62.5t-62.5 25.5z" />
    <glyph glyph-name="ugrave" unicode="&#xf9;" horiz-adv-x="533" 
d="M324 484h163v-225v-17q0 -97 -34 -153q-30 -47 -78.5 -73t-106.5 -26q-66 0 -120 33.5t-80 90.5q-21 47 -21 128v17v225h163v-243v-16q0 -74 57 -74t57 74v16v243zM322 545h-117l-126 130h166z" />
    <glyph glyph-name="uacute" unicode="&#xfa;" horiz-adv-x="533" 
d="M324 484h163v-225v-17q0 -97 -34 -153q-30 -47 -78.5 -73t-106.5 -26q-66 0 -120 33.5t-80 90.5q-21 47 -21 128v17v225h163v-243v-16q0 -74 57 -74t57 74v16v243zM210 545l76 130h167l-127 -130h-116z" />
    <glyph glyph-name="ucircumflex" unicode="&#xfb;" horiz-adv-x="533" 
d="M324 484h163v-225v-17q0 -97 -34 -153q-30 -47 -78.5 -73t-106.5 -26q-66 0 -120 33.5t-80 90.5q-21 47 -21 128v17v225h163v-243v-16q0 -74 57 -74t57 74v16v243zM103 545l93 130h133l94 -130h-134l-26 53l-27 -53h-133z" />
    <glyph glyph-name="udieresis" unicode="&#xfc;" horiz-adv-x="533" 
d="M324 484h163v-225v-17q0 -97 -34 -153q-30 -47 -78.5 -73t-106.5 -26q-66 0 -120 33.5t-80 90.5q-21 47 -21 128v17v225h163v-243v-16q0 -74 57 -74t57 74v16v243zM93 610q0 27 19.5 46.5t46.5 19.5q28 0 47.5 -19.5t19.5 -46.5q0 -28 -19.5 -47.5t-47.5 -19.5
q-27 0 -46.5 19.5t-19.5 47.5zM305 610q0 27 19 46.5t47 19.5t47.5 -19.5t19.5 -46.5q0 -28 -19.5 -47.5t-47.5 -19.5t-47 19.5t-19 47.5z" />
    <glyph glyph-name="ydieresis" unicode="&#xff;" horiz-adv-x="537" 
d="M47 484h163v-217v-17q0 -72 57 -72q30 0 43.5 18t13.5 58v15v215h163v-376v-34q-1 -114 -61 -182q-75 -85 -213 -85q-51 0 -106 12v145q46 -17 88 -17q53 0 83 23t46 77q-65 -31 -113 -31q-79 0 -121.5 49t-42.5 138v14v267zM92 610q0 27 19.5 46.5t46.5 19.5
q28 0 47.5 -19.5t19.5 -46.5q0 -28 -19.5 -47.5t-47.5 -19.5q-27 0 -46.5 19.5t-19.5 47.5zM304 610q0 27 19 46.5t47 19.5t47.5 -19.5t19.5 -46.5q0 -28 -19.5 -47.5t-47.5 -19.5t-47 19.5t-19 47.5z" />
    <glyph glyph-name="dotlessi" unicode="&#x131;" horiz-adv-x="263" 
d="M50 0v484h163v-484h-163z" />
    <glyph glyph-name="OE" unicode="&#x152;" horiz-adv-x="974" 
d="M923 667v-151h-136h-26q-28 -2 -44 -16t-16 -37q0 -24 17.5 -39.5t44.5 -15.5h23h137v-149h-137h-15q-28 -1 -45 -16t-17 -38q0 -24 16.5 -39t43.5 -15h18h136v-151h-210q-104 0 -151 42q-87 -55 -188 -55q-145 0 -246 100.5t-101 243.5q0 144 102.5 246.5t247.5 102.5
q108 0 194 -62q50 49 142 49h210zM204 333q0 -70 49.5 -119.5t119.5 -49.5t120 49.5t50 119.5q0 71 -49.5 120.5t-120.5 49.5q-70 0 -119.5 -50t-49.5 -120z" />
    <glyph glyph-name="oe" unicode="&#x153;" horiz-adv-x="838" 
d="M764 190l39 -159q-76 -41 -161 -41q-118 0 -195 69q-76 -69 -168 -69q-103 0 -179.5 75t-76.5 175q0 99 77.5 175.5t177.5 76.5q91 0 166 -66q69 66 174 66q136 0 213 -120l-203 -220q9 -2 21 -2q54 0 115 40zM186 241q0 -37 26 -62.5t62 -25.5q37 0 62.5 25.5t25.5 62.5
t-25.5 62.5t-62.5 25.5q-36 0 -62 -25.5t-26 -62.5zM653 323q-19 9 -38 9q-36 0 -62 -26t-26 -63q0 -21 12 -44z" />
    <glyph glyph-name="Ydieresis" unicode="&#x178;" horiz-adv-x="584" 
d="M203 0v212q-74 29 -119 89q-29 38 -40 78.5t-11 107.5v20v160h178v-182v-18q1 -44 22.5 -69t58.5 -25t58.5 25.5t21.5 68.5v18v182h178v-160v-20q0 -73 -13.5 -116.5t-47.5 -83.5q-43 -49 -108 -75v-212h-178zM120 798q0 27 19.5 46.5t46.5 19.5q28 0 47.5 -19.5
t19.5 -46.5q0 -28 -19.5 -47.5t-47.5 -19.5q-27 0 -46.5 19.5t-19.5 47.5zM332 798q0 27 19 46.5t47 19.5t47.5 -19.5t19.5 -46.5q0 -28 -19.5 -47.5t-47.5 -19.5t-47 19.5t-19 47.5z" />
    <glyph glyph-name="florin" unicode="&#x192;" horiz-adv-x="525" 
d="M130 307l24 153h47l9 55q11 72 39 117q69 105 196 105q36 0 80 -12l-40 -172q-23 14 -39 14q-41 0 -57 -45q-7 -17 -16 -62h51l-24 -153h-51l-32 -206q-16 -101 -58 -153q-71 -85 -182 -85q-35 0 -77 15l40 172q23 -14 40 -14q54 0 70 96l2 12l25 163h-47z" />
    <glyph glyph-name="circumflex" unicode="&#x2c6;" horiz-adv-x="453" 
d="M67 545l93 130h133l94 -130h-134l-26 53l-27 -53h-133z" />
    <glyph glyph-name="caron" unicode="&#x2c7;" 
d="M33 0v667h334v-667h-334zM40 7h320v653h-320v-653z" />
    <glyph glyph-name="breve" unicode="&#x2d8;" 
d="M33 0v667h334v-667h-334zM40 7h320v653h-320v-653z" />
    <glyph glyph-name="dotaccent" unicode="&#x2d9;" 
d="M33 0v667h334v-667h-334zM40 7h320v653h-320v-653z" />
    <glyph glyph-name="ring" unicode="&#x2da;" horiz-adv-x="292" 
d="M67 609q0 32 23 55t56 23t56.5 -23t23.5 -55t-23.5 -54.5t-56.5 -22.5t-56 22.5t-23 54.5zM120 609q0 -11 7.5 -18.5t18.5 -7.5t19 7.5t8 18.5t-8 19t-19 8t-18.5 -8t-7.5 -19z" />
    <glyph glyph-name="ogonek" unicode="&#x2db;" 
d="M33 0v667h334v-667h-334zM40 7h320v653h-320v-653z" />
    <glyph glyph-name="tilde" unicode="&#x2dc;" horiz-adv-x="466" 
d="M400 597q-29 -27 -52.5 -37.5t-56.5 -10.5q-29 0 -79 15q-16 5 -34 5q-24 0 -54 -23l-57 75q42 49 104 49q30 0 54 -7l35 -10q13 -4 29 -4q24 0 52 24z" />
    <glyph glyph-name="hungarumlaut" unicode="&#x2dd;" 
d="M33 0v667h334v-667h-334zM40 7h320v653h-320v-653z" />
    <glyph glyph-name="Delta" unicode="&#x394;" 
d="M33 0v667h334v-667h-334zM40 7h320v653h-320v-653z" />
    <glyph glyph-name="Omega" unicode="&#x3a9;" 
d="M33 0v667h334v-667h-334zM40 7h320v653h-320v-653z" />
    <glyph glyph-name="pi" unicode="&#x3c0;" 
d="M33 0v667h334v-667h-334zM40 7h320v653h-320v-653z" />
    <glyph glyph-name="endash" unicode="&#x2013;" horiz-adv-x="489" 
d="M53 184v147h382v-147h-382z" />
    <glyph glyph-name="emdash" unicode="&#x2014;" horiz-adv-x="1107" 
d="M53 184v147h1000v-147h-1000z" />
    <glyph glyph-name="quoteleft" unicode="&#x2018;" horiz-adv-x="298" 
d="M144 667h84q-23 -38 -45 -86l-4 -9q57 -26 57 -83q0 -37 -25.5 -62t-61.5 -25t-61.5 25t-25.5 61q0 55 82 179z" />
    <glyph glyph-name="quoteright" unicode="&#x2019;" horiz-adv-x="298" 
d="M70 415q25 41 45 86l4 8q-57 28 -57 84q0 36 25.5 61.5t62.5 25.5q35 0 60.5 -25.5t25.5 -60.5q0 -55 -81 -179h-85z" />
    <glyph glyph-name="quotesinglbase" unicode="&#x201a;" 
d="M33 0v667h334v-667h-334zM40 7h320v653h-320v-653z" />
    <glyph glyph-name="quotedblleft" unicode="&#x201c;" horiz-adv-x="495" 
d="M144 667h84q-23 -38 -45 -86l-4 -9q57 -26 57 -83q0 -37 -25.5 -62t-61.5 -25t-61.5 25t-25.5 61q0 55 82 179zM340 667h85q-17 -25 -46 -86l-4 -9q58 -27 58 -83q0 -37 -25.5 -62t-62.5 -25q-36 0 -61 25t-25 61q0 55 81 179z" />
    <glyph glyph-name="quotedblright" unicode="&#x201d;" horiz-adv-x="495" 
d="M155 415h-85q25 41 45 86l4 8q-57 28 -57 84q0 36 25.5 61.5t62.5 25.5q35 0 60.5 -25.5t25.5 -60.5q0 -55 -81 -179zM351 415h-84q20 32 45 86l4 8q-57 28 -57 84q0 36 25.5 61.5t61.5 25.5t61.5 -25.5t25.5 -60.5q0 -55 -82 -179z" />
    <glyph glyph-name="quotedblbase" unicode="&#x201e;" horiz-adv-x="495" 
d="M155 -97h-85q23 38 45 86l4 9q-57 26 -57 83q0 37 25.5 62t62.5 25q35 0 60.5 -25t25.5 -61q0 -55 -81 -179zM351 -97h-84q16 26 45 86l4 9q-57 26 -57 83q0 37 25.5 62t61.5 25t61.5 -25t25.5 -61q0 -55 -82 -179z" />
    <glyph glyph-name="dagger" unicode="&#x2020;" 
d="M33 0v667h334v-667h-334zM40 7h320v653h-320v-653z" />
    <glyph glyph-name="daggerdbl" unicode="&#x2021;" 
d="M33 0v667h334v-667h-334zM40 7h320v653h-320v-653z" />
    <glyph glyph-name="bullet" unicode="&#x2022;" horiz-adv-x="374" 
d="M33 340q0 64 45 109t109 45t109 -45t45 -109t-45 -109t-109 -45t-109 45t-45 109z" />
    <glyph glyph-name="ellipsis" unicode="&#x2026;" horiz-adv-x="1000" 
d="M64 89q0 43 30 73t73 30q42 0 72 -30t30 -73q0 -42 -30 -72t-72 -30q-43 0 -73 30t-30 72zM398 89q0 43 29.5 73t72.5 30t73 -30t30 -73q0 -42 -30 -72t-73 -30t-72.5 30t-29.5 72zM731 89q0 43 30 73t72 30q43 0 73 -30t30 -73q0 -42 -30 -72t-73 -30q-42 0 -72 30
t-30 72z" />
    <glyph glyph-name="perthousand" unicode="&#x2030;" horiz-adv-x="1155" 
d="M105 0l422 667h160l-422 -667h-160zM431 152q0 68 48 116.5t117 48.5q68 0 116.5 -48.5t48.5 -116.5t-48.5 -116.5t-116.5 -48.5q-69 0 -117 48.5t-48 116.5zM33 515q0 68 48.5 116.5t116.5 48.5t116.5 -48.5t48.5 -116.5t-48.5 -116.5t-116.5 -48.5t-116.5 48.5
t-48.5 116.5zM791 152q0 68 48.5 116.5t116.5 48.5t116.5 -48.5t48.5 -116.5t-48.5 -116.5t-116.5 -48.5t-116.5 48.5t-48.5 116.5zM545 152q0 -21 14.5 -36t36.5 -15q21 0 36 15t15 36t-15 36t-36 15q-22 0 -36.5 -15t-14.5 -36zM147 515q0 -21 15 -36t36 -15t36 15t15 36
t-15 36t-36 15t-36 -15t-15 -36zM905 152q0 -21 15 -36t36 -15t36 15t15 36t-15 36t-36 15t-36 -15t-15 -36z" />
    <glyph glyph-name="guilsinglleft" unicode="&#x2039;" horiz-adv-x="300" 
d="M130 66l-76 184l76 179h117l-77 -179l77 -184h-117z" />
    <glyph glyph-name="guilsinglright" unicode="&#x203a;" horiz-adv-x="300" 
d="M170 66h-116l76 184l-76 179h116l77 -179z" />
    <glyph glyph-name="fraction" unicode="&#x2044;" horiz-adv-x="583" 
d="M0 0l422 667h161l-422 -667h-161z" />
    <glyph glyph-name="trademark" unicode="&#x2122;" 
d="M33 0v667h334v-667h-334zM40 7h320v653h-320v-653z" />
    <glyph glyph-name="partialdiff" unicode="&#x2202;" 
d="M33 0v667h334v-667h-334zM40 7h320v653h-320v-653z" />
    <glyph glyph-name="product" unicode="&#x220f;" 
d="M33 0v667h334v-667h-334zM40 7h320v653h-320v-653z" />
    <glyph glyph-name="summation" unicode="&#x2211;" 
d="M33 0v667h334v-667h-334zM40 7h320v653h-320v-653z" />
    <glyph glyph-name="radical" unicode="&#x221a;" 
d="M33 0v667h334v-667h-334zM40 7h320v653h-320v-653z" />
    <glyph glyph-name="infinity" unicode="&#x221e;" 
d="M33 0v667h334v-667h-334zM40 7h320v653h-320v-653z" />
    <glyph glyph-name="integral" unicode="&#x222b;" 
d="M33 0v667h334v-667h-334zM40 7h320v653h-320v-653z" />
    <glyph glyph-name="approxequal" unicode="&#x2248;" 
d="M33 0v667h334v-667h-334zM40 7h320v653h-320v-653z" />
    <glyph glyph-name="notequal" unicode="&#x2260;" 
d="M33 0v667h334v-667h-334zM40 7h320v653h-320v-653z" />
    <glyph glyph-name="lessequal" unicode="&#x2264;" 
d="M33 0v667h334v-667h-334zM40 7h320v653h-320v-653z" />
    <glyph glyph-name="greaterequal" unicode="&#x2265;" 
d="M33 0v667h334v-667h-334zM40 7h320v653h-320v-653z" />
    <glyph glyph-name="lozenge" unicode="&#x25ca;" 
d="M33 0v667h334v-667h-334zM40 7h320v653h-320v-653z" />
    <glyph glyph-name="apple" unicode="&#xf8ff;" 
d="M33 0v667h334v-667h-334zM40 7h320v653h-320v-653z" />
    <glyph glyph-name="fi" unicode="&#xfb01;" horiz-adv-x="532" 
d="M482 484v-484h-163v331h-106v-331h-163v399q0 138 57 205q29 34 75 53.5t96 19.5h5v-134q-59 -5 -70 -59h269zM313 585q0 38 25 64.5t62 26.5t62.5 -26t25.5 -63q0 -36 -25.5 -61.5t-62.5 -25.5q-35 0 -61 25.5t-26 59.5z" />
    <glyph glyph-name="fl" unicode="&#xfb02;" horiz-adv-x="532" 
d="M319 484v189h163v-673h-163v331h-106v-331h-163v399q0 125 42 192q54 86 159 86q16 0 32 -4v-133q-60 -11 -70 -56h106z" />
    </font>
</defs>
</svg>
